<?xml version="1.0" encoding="utf-8"?>
<!-- Generator: Adobe Illustrator 25.4.1, SVG Export Plug-In . SVG Version: 6.00 Build 0)  -->
<svg version="1.1"
	 id="svg2" inkscape:output_extension="org.inkscape.output.svg.inkscape" inkscape:version="0.45.1" sodipodi:version="0.32" xmlns:cc="http://web.resource.org/cc/" xmlns:dc="http://purl.org/dc/elements/1.1/" xmlns:inkscape="http://www.inkscape.org/namespaces/inkscape" xmlns:rdf="http://www.w3.org/1999/02/22-rdf-syntax-ns#" xmlns:sodipodi="http://sodipodi.sourceforge.net/DTD/sodipodi-0.dtd" xmlns:svg="http://www.w3.org/2000/svg"
	 xmlns="http://www.w3.org/2000/svg" xmlns:xlink="http://www.w3.org/1999/xlink" x="0px" y="0px" viewBox="0 0 303 208"
	 style="enable-background:new 0 0 303 208;" xml:space="preserve">
<style type="text/css">
	.st0{fill:#FFFFFF;stroke:#000000;stroke-width:0.4993;}
	.st1{fill-rule:evenodd;clip-rule:evenodd;fill:#FB0F0C;stroke:#FB0F0C;stroke-width:2.682629e-02;stroke-miterlimit:10;}
	.st2{fill-rule:evenodd;clip-rule:evenodd;fill:#FFFFFF;stroke:#FFFFFF;stroke-width:2.682629e-02;stroke-miterlimit:10;}
	.st3{fill-rule:evenodd;clip-rule:evenodd;fill:#FB0F0C;}
	.st4{fill:none;stroke:#000000;stroke-width:2.682629e-02;stroke-miterlimit:10;}
	.st5{fill-rule:evenodd;clip-rule:evenodd;fill:#FFFFFF;}
	.st6{fill:none;stroke:#FB0F0C;stroke-width:1.2877;stroke-miterlimit:10;}
</style>
<sodipodi:namedview  bordercolor="#666666" borderopacity="1.0" gridtolerance="10.0" guidetolerance="10.0" height="303px" id="base" inkscape:current-layer="svg2" inkscape:cx="104.42474" inkscape:cy="151.66565" inkscape:pageopacity="0.0" inkscape:pageshadow="2" inkscape:window-height="1003" inkscape:window-width="1280" inkscape:window-x="-4" inkscape:window-y="-4" inkscape:zoom="1.2428655" objecttolerance="10.0" pagecolor="#ffffff" width="208px">
	</sodipodi:namedview>
<g id="Layer_x0020_1" transform="matrix(1,0,0,1.0029936,0,-0.363221)">
	<path id="path5" class="st0" d="M8.8,207.9c-4.7,0-8.6-3.8-8.6-8.5V9.7c0-4.7,3.9-8.5,8.6-8.5H294c4.7,0,8.6,3.8,8.6,8.5v189.7
		c0,4.7-3.9,8.5-8.6,8.5H8.8L8.8,207.9z"/>
	<path id="path7" class="st1" d="M262.2,35.2c0,42.8,0,85.6,0,128.4c0,1,0.5,10.7-0.4,10.7c-4.7,0-9.3,0-14,0c-23.2,0-46.3,0-69.5,0
		c-45,0-89.9,0-134.9,0c-0.3,0-1.8,0.2-1.8-0.2c0-1.9,0-3.8,0-5.8c0-10,0-19.9,0-29.9c0-27,0-54,0-81.1c0-7.1,0-14.3,0-21.4
		c0-1.8,5.1-0.8,6.5-0.8c20.2,0,40.5,0,60.7,0c48.8,0,97.6,0,146.4,0C257.6,35.2,259.9,35.2,262.2,35.2"/>
	<path id="path9" class="st2" d="M182.9,77.4c0,5.5,0.4,54.6-0.4,54.6c-20.9,0-41.8,0-62.8,0c-0.6,0-0.1-54.6-0.2-54.6
		c20.8,0,41.6,0,62.4,0C182.3,77.4,182.6,77.4,182.9,77.4"/>
	<path id="path11" class="st2" d="M188.7,104.7c-6.2-5.4-12.5-10.8-18.7-16.1c-4.2-3.6-8.4-7.3-12.6-10.9c-1-0.8-4.7-5.3-6.1-5.3
		c-1.2,0-4.7,4.1-5.6,4.8c-4.4,3.8-8.7,7.5-13.1,11.3c-6.2,5.4-12.5,10.8-18.7,16.1c6.2,5.4,12.5,10.8,18.7,16.1
		c4.2,3.6,8.4,7.3,12.6,10.9c1,0.8,4.7,5.3,6.1,5.3c1.2,0,4.7-4.1,5.6-4.8c4.4-3.8,8.7-7.5,13.1-11.3
		C176.2,115.5,182.4,110.1,188.7,104.7"/>
	<path id="path13" class="st1" d="M180,79.9c0,10.3,0,20.6,0,30.9c0,5.5,0,11.1,0,16.6c0,2.9-0.2,2.2-3.1,2.2c-12.7,0-25.3,0-38,0
		c-5,0-9.9,0-14.9,0c-2.6,0-1.6-1.5-1.6-4c0-10.8,0-21.7,0-32.5c0-4,0-8,0-11.9c0-2,1.3-1.2,3.1-1.2C143.7,79.9,161.9,79.9,180,79.9
		"/>
	<path id="path15" class="st1" d="M185.8,104.7c-5.7-4.9-11.3-9.7-17-14.6c-4-3.5-8.1-6.9-12.1-10.4c-0.9-0.8-4.3-4.8-5.5-4.8
		c-1.1,0-4.2,3.6-5,4.3c-4,3.4-8,6.9-11.9,10.3c-5.9,5.1-11.7,10.1-17.6,15.2c5.7,4.9,11.3,9.7,17,14.6c4,3.5,8.1,7,12.1,10.4
		c0.9,0.8,4.3,4.8,5.5,4.8c1.1,0,4.2-3.6,5-4.3c4-3.4,8-6.9,11.9-10.3C174.1,114.8,179.9,109.8,185.8,104.7"/>
	<path id="path17" class="st2" d="M174.3,84.8c0,10.8,0,21.6,0,32.4c0,1.3,0.9,7.4-0.7,7.4c-4.9,0-9.8,0-14.7,0
		c-2.2,0-30.7,0-30.7,0c0-11,0-22,0-33c0-1.3-0.9-6.7,0.7-6.7c4.9,0,9.8,0,14.7,0C153.8,84.8,164,84.8,174.3,84.8"/>
	<path id="path19" class="st2" d="M180,104.7c-4.8-4.1-9.6-8.3-14.4-12.4c-3.2-2.8-6.4-5.6-9.7-8.3c-0.8-0.7-3.7-4.1-4.8-4.1
		c-0.9,0-3.6,3.1-4.3,3.7c-3.4,2.9-6.8,5.8-10.2,8.7c-4.8,4.1-9.6,8.3-14.4,12.4c4.8,4.1,9.6,8.3,14.4,12.4c3.2,2.8,6.4,5.6,9.7,8.3
		c0.8,0.7,3.7,4.1,4.8,4.1c0.9,0,3.6-3.1,4.3-3.7c3.4-2.9,6.8-5.8,10.2-8.7C170.4,113,175.2,108.9,180,104.7"/>
	<path id="path21" class="st1" d="M171.4,87.3c0,10.6,0,21.2,0,31.8c0,3.8-0.3,3-4.2,3c-6.5,0-12.9,0-19.4,0c-5.3,0-10.6,0-15.9,0
		c-1.9,0-0.8-6.5-0.8-8c0-6.7,0-13.4,0-20.2c0-2.3-1.4-6.6,1.5-6.6C145.5,87.3,158.4,87.3,171.4,87.3"/>
	<path id="path23" class="st1" d="M177.2,104.7c-4.2-3.6-8.4-7.3-12.6-10.9c-3-2.6-6.1-5.2-9.1-7.9c-0.7-0.6-3.2-3.6-4.2-3.6
		c-0.8,0-3.1,2.7-3.7,3.2c-3,2.6-6,5.1-9,7.7c-4.4,3.8-8.9,7.6-13.3,11.5c4.2,3.6,8.4,7.3,12.6,10.9c3,2.6,6.1,5.2,9.1,7.9
		c0.7,0.6,3.2,3.6,4.2,3.6c0.8,0,3.1-2.7,3.7-3.2c3-2.6,6-5.1,9-7.7C168.3,112.4,172.7,108.5,177.2,104.7"/>
	<path id="path25" class="st2" d="M174.3,104.7c-3.7-3.2-7.5-6.4-11.2-9.7c-2.6-2.3-5.3-4.5-7.9-6.8c-0.6-0.5-3.1-3.4-4-3.4
		c-0.8,0-2.9,2.5-3.5,3c-2.6,2.2-5.1,4.4-7.7,6.7c-4,3.4-7.9,6.8-11.9,10.2c3.7,3.2,7.5,6.4,11.2,9.7c2.6,2.3,5.3,4.5,7.9,6.8
		c0.6,0.5,3.1,3.4,4,3.4c0.8,0,2.9-2.5,3.5-3c2.6-2.2,5.1-4.4,7.7-6.7C166.4,111.5,170.3,108.1,174.3,104.7"/>
	<path id="path27" class="st2" d="M168.5,89.8c0,9.9,0,19.8,0,29.7c0,0.3-28.3,0.1-31,0.1c-0.5,0-3.2,0.4-3.6,0c-0.5-0.4,0-4,0-4.7
		c0-6.6,0-13.2,0-19.8c0-1.7,0-3.5,0-5.2c0-0.3,2.7-0.1,3.1-0.1c6.5,0,12.9,0,19.4,0C160.4,89.8,164.5,89.8,168.5,89.8"/>
	<path id="path29" class="st3" d="M168.5,104.7c-2.9-2.5-5.8-5-8.6-7.5c-2-1.7-4-3.4-5.9-5.1c-0.4-0.4-2.1-2.3-2.7-2.3
		c-0.6,0-2.3,2-2.7,2.3c-2,1.7-4,3.4-5.9,5.1c-2.9,2.5-5.8,5-8.6,7.5c2.9,2.5,5.8,5,8.6,7.5c2,1.7,4,3.4,5.9,5.1
		c0.4,0.4,2.1,2.3,2.7,2.3c0.6,0,2.3-2,2.7-2.3c2-1.7,4-3.4,5.9-5.1C162.7,109.7,165.6,107.2,168.5,104.7"/>
	<path id="path31" class="st2" d="M185.8,142c0-1.7,0-3.3,0-5c-1.9,1.7-3.8,3.3-5.8,5C182,142,183.9,142,185.8,142"/>
	<path id="path33" class="st2" d="M177.2,142c1.9-1.7,3.8-3.3,5.8-5c-1.9,0-3.7,0-5.6,0C177,137,177.2,141.3,177.2,142"/>
	<path id="path35" class="st2" d="M185.8,67.5c0,1.7,0,3.3,0,5c-1.9-1.7-3.8-3.3-5.8-5C182,67.5,183.9,67.5,185.8,67.5"/>
	<path id="path37" class="st2" d="M177.2,67.5c1.9,1.7,3.8,3.3,5.8,5c-1.9,0-3.7,0-5.6,0C177,72.4,177.2,68.1,177.2,67.5"/>
	<path id="path39" class="st2" d="M125.3,72.4c0-1.7,0-3.3,0-5c-1.9,1.7-3.8,3.3-5.8,5C121.4,72.4,123.4,72.4,125.3,72.4"/>
	<path id="path41" class="st2" d="M116.6,72.4c1.9-1.7,3.8-3.3,5.8-5c-1.9,0-3.7,0-5.6,0C116.5,67.5,116.6,71.8,116.6,72.4"/>
	<path id="path43" class="st2" d="M125.3,137c0,1.7,0,3.3,0,5c-1.9-1.7-3.8-3.3-5.8-5C121.4,137,123.4,137,125.3,137"/>
	<path id="path45" class="st2" d="M116.6,137c1.9,1.7,3.8,3.3,5.8,5c-1.9,0-3.7,0-5.6,0C116.5,142,116.6,137.7,116.6,137"/>
	<path id="path47" class="st2" d="M145.5,72.4c0-1.7,0-3.3,0-5c-1.9,1.7-3.8,3.3-5.8,5C141.6,72.4,143.5,72.4,145.5,72.4"/>
	<path id="path49" class="st2" d="M136.8,72.4c1.9-1.7,3.8-3.3,5.8-5c-1.9,0-3.7,0-5.6,0C136.6,67.5,136.8,71.8,136.8,72.4"/>
	<path id="path51" class="st2" d="M165.6,67.5c0,1.7,0,3.3,0,5c-1.9-1.7-3.8-3.3-5.8-5C161.8,67.5,163.7,67.5,165.6,67.5"/>
	<path id="path53" class="st2" d="M157,67.5c1.9,1.7,3.8,3.3,5.8,5c-1.9,0-3.7,0-5.6,0C156.8,72.4,157,68.1,157,67.5"/>
	<path id="path55" class="st2" d="M165.6,142c0-1.7,0-3.3,0-5c-1.9,1.7-3.8,3.3-5.8,5C161.8,142,163.7,142,165.6,142"/>
	<path id="path57" class="st2" d="M157,142c1.9-1.7,3.8-3.3,5.8-5c-1.9,0-3.7,0-5.6,0C156.8,137,157,141.3,157,142"/>
	<path id="path59" class="st2" d="M145.5,137c0,1.7,0,3.3,0,5c-1.9-1.7-3.8-3.3-5.8-5C141.6,137,143.5,137,145.5,137"/>
	<path id="path61" class="st2" d="M136.8,137c1.9,1.7,3.8,3.3,5.8,5c-1.9,0-3.7,0-5.6,0C136.6,142,136.8,137.7,136.8,137"/>
	<path id="path63" class="st3" d="M271.9,87.4c2.5-1,5.1-2.1,7.7-2.8c2.4-0.6,8.2-1.1,9.3,2c1.1,3-4.2,4.1-6.2,4.1
		c-3.1-0.1-6.3-1.5-9.1-2.6C273.1,87.9,272.5,87.6,271.9,87.4"/>
	<path id="path65" class="st3" d="M271.9,87.4c1.1-2.5,2.1-5.3,3.7-7.5c1.4-2,5.6-5.1,8.2-3.3c2.6,1.8-0.4,5.7-2.1,6.9
		c-2.5,1.8-6,2.6-8.9,3.5C272.5,87.2,272.2,87.3,271.9,87.4"/>
	<path id="path67" class="st3" d="M271.9,87.4c1.1,2.5,2.1,5.3,3.7,7.5c1.4,2,5.7,5.1,8.2,3.3c2.6-1.8-0.4-5.7-2.1-6.9
		c-2.6-1.8-6.1-2.7-9.1-3.6C272.3,87.5,272.1,87.5,271.9,87.4"/>
	<path id="path69" class="st3" d="M271.5,81c0.6-2,0.4-4.5-1.5-5.8c-1-0.7-4.9-0.8-4.1,1.3c0.1,0.4,1.8,0.7,2.2,1.2
		c0.7,0.9,0.7,2.5,0.8,3.6c0.1,1.4,0,3,0.2,4.4c0,0,0,0,0,0C270.2,84.3,271,82.6,271.5,81"/>
	<path id="path71" class="st3" d="M271.5,93.7c0.6,2,0.4,4.5-1.5,5.8c-1,0.7-4.9,0.8-4.1-1.3c0.1-0.4,1.8-0.7,2.2-1.2
		c0.7-0.9,0.7-2.5,0.8-3.6c0.1-1.5,0-3,0.2-4.4c0,0,0,0,0,0C270.2,90.3,271,92,271.5,93.7"/>
	<path id="path73" class="st3" d="M265.9,85.7c-2.5,0.3-1.3,4.7,2.2,2.6C270.6,86.8,268.3,85.9,265.9,85.7"/>
	<path id="path75" class="st3" d="M271.9,122.2c2.5-1,5.1-2.1,7.7-2.8c2.4-0.6,8.2-1.1,9.3,2c1.1,3-4.2,4.1-6.2,4.1
		c-3.1-0.1-6.3-1.5-9.1-2.6C273.1,122.6,272.5,122.4,271.9,122.2"/>
	<path id="path77" class="st3" d="M271.9,122.2c1.1-2.5,2.1-5.3,3.7-7.5c1.4-2,5.7-5.1,8.2-3.3c2.6,1.8-0.4,5.7-2.1,6.9
		c-2.5,1.8-6,2.6-8.9,3.5C272.5,122,272.2,122.1,271.9,122.2"/>
	<path id="path79" class="st3" d="M271.9,122.2c1.1,2.5,2.1,5.3,3.7,7.5c1.4,2,5.6,5.1,8.2,3.3c2.6-1.8-0.4-5.7-2.1-6.9
		c-2.6-1.8-6.1-2.7-9.1-3.6C272.3,122.3,272.1,122.2,271.9,122.2"/>
	<path id="path81" class="st3" d="M271.5,115.8c0.6-2,0.4-4.5-1.5-5.8c-1-0.7-4.9-0.8-4.1,1.3c0.1,0.4,1.8,0.7,2.2,1.2
		c0.7,0.9,0.7,2.5,0.8,3.6c0.1,1.4,0,3,0.2,4.4c0,0,0,0,0,0C270.2,119.1,271,117.4,271.5,115.8"/>
	<path id="path83" class="st3" d="M271.5,128.4c0.6,2,0.4,4.5-1.5,5.8c-1,0.7-4.9,0.8-4.1-1.3c0.1-0.4,1.8-0.7,2.2-1.2
		c0.7-0.9,0.7-2.5,0.8-3.6c0.1-1.4,0-3,0.2-4.4c0,0,0,0,0,0C270.2,125.1,271,126.8,271.5,128.4"/>
	<path id="path85" class="st3" d="M265.9,120.4c-2.5,0.3-1.3,4.7,2.2,2.6C270.6,121.6,268.3,120.7,265.9,120.4"/>
	<path id="path87" class="st3" d="M271.9,156.9c2.5-1,5.1-2.1,7.7-2.8c2.4-0.6,8.2-1.1,9.3,2c1.1,3-4.2,4.1-6.2,4.1
		c-3.1-0.1-6.3-1.5-9.1-2.6C273.1,157.4,272.5,157.2,271.9,156.9"/>
	<path id="path89" class="st3" d="M271.9,156.9c1.1-2.5,2.1-5.3,3.7-7.5c1.4-2,5.7-5.1,8.2-3.3c2.6,1.8-0.4,5.7-2.1,6.9
		c-2.6,1.8-6.1,2.7-9.1,3.6C272.3,156.8,272.1,156.9,271.9,156.9"/>
	<path id="path91" class="st3" d="M271.9,156.9c1.1,2.5,2.1,5.3,3.7,7.5c1.4,2,5.7,5.1,8.2,3.3c2.6-1.8-0.4-5.7-2.1-6.9
		c-2.6-1.8-6.1-2.7-9.1-3.6C272.3,157.1,272.1,157,271.9,156.9"/>
	<path id="path93" class="st3" d="M271.5,150.5c0.6-2,0.4-4.5-1.5-5.8c-1-0.7-4.9-0.8-4.1,1.3c0.1,0.4,1.8,0.7,2.2,1.2
		c0.7,0.9,0.7,2.6,0.8,3.6c0.1,1.5,0,3,0.2,4.4c0,0,0,0,0,0C270.2,153.9,271,152.2,271.5,150.5"/>
	<path id="path95" class="st3" d="M271.5,163.2c0.6,2,0.4,4.5-1.5,5.8c-1,0.7-4.9,0.8-4.1-1.3c0.1-0.4,1.8-0.7,2.2-1.2
		c0.7-0.9,0.7-2.5,0.8-3.6c0.1-1.4,0-3,0.2-4.4c0,0,0,0,0,0C270.2,159.9,271,161.6,271.5,163.2"/>
	<path id="path97" class="st3" d="M265.9,155.2c-2.5,0.3-1.3,4.7,2.2,2.6C270.6,156.3,268.3,155.5,265.9,155.2"/>
	<path id="path99" class="st3" d="M271.9,52.6c2.5-1,5.1-2.1,7.7-2.8c2.4-0.6,8.2-1.1,9.3,2c1.1,3-4.2,4.1-6.2,4.1
		c-3.1-0.1-6.3-1.5-9.1-2.6C273.1,53.1,272.5,52.8,271.9,52.6"/>
	<path id="path101" class="st3" d="M271.9,52.6c1.1-2.5,2.1-5.3,3.7-7.5c1.4-2,5.6-5.1,8.2-3.3c2.6,1.8-0.4,5.7-2.1,6.9
		c-2.5,1.8-6,2.6-8.9,3.5C272.5,52.4,272.2,52.5,271.9,52.6"/>
	<path id="path103" class="st3" d="M271.9,52.6c1.1,2.5,2.1,5.3,3.7,7.5c1.4,2,5.6,5.1,8.2,3.3c2.6-1.8-0.4-5.7-2.1-6.9
		c-2.5-1.8-6-2.6-8.9-3.5C272.5,52.8,272.2,52.7,271.9,52.6"/>
	<path id="path105" class="st3" d="M271.5,46.2c0.6-2,0.4-4.5-1.5-5.8c-1-0.7-4.9-0.8-4.1,1.3c0.1,0.4,1.8,0.7,2.2,1.2
		c0.7,0.9,0.7,2.5,0.8,3.6c0.1,1.5,0,3,0.2,4.4c0,0,0,0,0,0C270.2,49.6,271,47.8,271.5,46.2"/>
	<path id="path107" class="st3" d="M271.5,58.9c0.6,2,0.4,4.5-1.5,5.8c-1,0.7-4.9,0.8-4.1-1.3c0.1-0.4,1.8-0.7,2.2-1.2
		c0.7-0.9,0.7-2.5,0.8-3.6c0.1-1.4,0-3,0.2-4.4c0,0,0,0,0,0C270.2,55.5,271,57.3,271.5,58.9"/>
	<path id="path109" class="st3" d="M265.9,50.9c-2.5,0.3-1.3,4.7,2.2,2.6C270.6,52,268.3,51.2,265.9,50.9"/>
	<path id="path111" class="st3" d="M32,87.1c-2.5-1-5.1-2.1-7.7-2.8c-2.4-0.6-8.2-1.1-9.3,2c-1.1,3,4.2,4.1,6.2,4.1
		c3.1-0.1,6.3-1.5,9.1-2.6C30.8,87.5,31.4,87.3,32,87.1"/>
	<path id="path113" class="st3" d="M32,87.1c-1.1-2.5-2.1-5.3-3.7-7.5c-1.4-2-5.6-5.1-8.2-3.3c-2.6,1.8,0.4,5.7,2.1,6.9
		c2.5,1.8,6,2.6,8.9,3.5C31.4,86.9,31.7,87,32,87.1"/>
	<path id="path115" class="st3" d="M32,87.1c-1.1,2.5-2.1,5.3-3.7,7.5c-1.4,2-5.6,5.1-8.2,3.3c-2.6-1.8,0.4-5.7,2.1-6.9
		c2.6-1.8,6.1-2.7,9.1-3.6C31.6,87.2,31.8,87.1,32,87.1"/>
	<path id="path117" class="st3" d="M32.4,80.7c-0.6-2-0.4-4.5,1.5-5.8c1-0.7,4.9-0.8,4.1,1.3c-0.1,0.4-1.8,0.7-2.2,1.2
		C35,78.3,35,79.9,34.9,81c-0.1,1.4,0,3-0.2,4.4c0,0,0,0,0,0C33.7,84,32.9,82.3,32.4,80.7"/>
	<path id="path119" class="st3" d="M32.4,93.4c-0.6,2-0.4,4.5,1.5,5.8c1,0.7,4.9,0.8,4.1-1.3c-0.1-0.4-1.8-0.7-2.2-1.2
		C35,95.8,35,94.1,34.9,93c-0.1-1.4,0-3-0.2-4.4c0,0,0,0,0,0C33.7,90,32.9,91.7,32.4,93.4"/>
	<path id="path121" class="st3" d="M38,85.4c2.5,0.3,1.3,4.7-2.2,2.6C33.3,86.5,35.6,85.6,38,85.4"/>
	<path id="path123" class="st3" d="M32,121.9c-2.5-1-5.1-2.1-7.7-2.8c-2.4-0.6-8.2-1.1-9.3,2c-1.1,3,4.2,4.1,6.2,4.1
		c3.1-0.1,6.3-1.5,9.1-2.6C30.8,122.3,31.4,122.1,32,121.9"/>
	<path id="path125" class="st3" d="M32,121.8c-1.1-2.5-2.1-5.3-3.7-7.5c-1.4-2-5.6-5.1-8.2-3.3c-2.6,1.8,0.4,5.7,2.1,6.9
		c2.6,1.8,6.1,2.7,9.1,3.6C31.6,121.7,31.8,121.8,32,121.8"/>
	<path id="path127" class="st3" d="M32,121.8c-1.1,2.5-2.1,5.3-3.7,7.5c-1.4,2-5.6,5.1-8.2,3.3c-2.6-1.8,0.4-5.7,2.1-6.9
		c2.6-1.8,6.1-2.7,9.1-3.6C31.6,122,31.8,121.9,32,121.8"/>
	<path id="path129" class="st3" d="M32.4,115.5c-0.6-2-0.4-4.5,1.5-5.8c1-0.7,4.9-0.8,4.1,1.3c-0.1,0.4-1.8,0.7-2.2,1.2
		c-0.7,0.9-0.7,2.5-0.8,3.6c-0.1,1.4,0,3-0.2,4.4c0,0,0,0,0,0C33.7,118.8,32.9,117.1,32.4,115.5"/>
	<path id="path131" class="st3" d="M32.4,128.1c-0.6,2-0.4,4.5,1.5,5.8c1,0.7,4.9,0.8,4.1-1.3c-0.1-0.4-1.8-0.7-2.2-1.2
		c-0.7-0.9-0.7-2.5-0.8-3.6c-0.1-1.4,0-3-0.2-4.4c0,0,0,0,0,0C33.7,124.8,32.9,126.5,32.4,128.1"/>
	<path id="path133" class="st3" d="M38,120.1c2.5,0.3,1.3,4.7-2.2,2.6C33.3,121.2,35.6,120.4,38,120.1"/>
	<path id="path135" class="st3" d="M32,156.6c-2.5-1-5.1-2.1-7.7-2.8c-2.4-0.6-8.2-1.1-9.3,2c-1.1,3,4.2,4.1,6.2,4.1
		c3.1-0.1,6.3-1.5,9.1-2.6C30.8,157.1,31.4,156.9,32,156.6"/>
	<path id="path137" class="st3" d="M32,156.6c-1.1-2.5-2.1-5.3-3.7-7.5c-1.4-2-5.6-5.1-8.2-3.3c-2.6,1.8,0.4,5.7,2.1,6.9
		c2.5,1.8,6,2.6,8.9,3.5C31.4,156.4,31.7,156.5,32,156.6"/>
	<path id="path139" class="st3" d="M32,156.6c-1.1,2.5-2.1,5.3-3.7,7.5c-1.4,2-5.6,5.1-8.2,3.3c-2.6-1.8,0.4-5.7,2.1-6.9
		c2.5-1.8,6-2.6,8.9-3.5C31.4,156.8,31.7,156.7,32,156.6"/>
	<path id="path141" class="st3" d="M32.4,150.2c-0.6-2-0.4-4.5,1.5-5.8c1-0.7,4.9-0.8,4.1,1.3c-0.1,0.4-1.8,0.7-2.2,1.2
		c-0.7,0.9-0.7,2.5-0.8,3.6c-0.1,1.4,0,3-0.2,4.4c0,0,0,0,0,0C33.7,153.6,32.9,151.9,32.4,150.2"/>
	<path id="path143" class="st3" d="M32.4,162.9c-0.6,2-0.4,4.5,1.5,5.8c1,0.7,4.9,0.8,4.1-1.3c-0.1-0.4-1.8-0.7-2.2-1.2
		c-0.7-0.9-0.7-2.5-0.8-3.6c-0.1-1.4,0-3-0.2-4.4c0,0,0,0,0,0C33.7,159.6,32.9,161.3,32.4,162.9"/>
	<path id="path145" class="st3" d="M38,154.9c2.5,0.3,1.3,4.7-2.2,2.6C33.3,156,35.6,155.2,38,154.9"/>
	<path id="path147" class="st3" d="M32,52.3c-2.5-1-5.1-2.1-7.7-2.8c-2.4-0.6-8.2-1.1-9.3,2c-1.1,3,4.2,4.1,6.2,4.1
		c3.1-0.1,6.3-1.5,9.1-2.6C30.8,52.8,31.4,52.5,32,52.3"/>
	<path id="path149" class="st3" d="M32,52.3c-1.1-2.5-2.1-5.3-3.7-7.5c-1.4-2-5.6-5.1-8.2-3.3c-2.6,1.8,0.4,5.7,2.1,6.9
		c2.5,1.8,6,2.6,8.9,3.5C31.4,52.1,31.7,52.2,32,52.3"/>
	<path id="path151" class="st3" d="M32,52.3c-1.1,2.5-2.1,5.3-3.7,7.5c-1.4,2-5.6,5.1-8.2,3.3c-2.6-1.8,0.4-5.7,2.1-6.9
		c2.6-1.8,6.1-2.7,9.1-3.6C31.6,52.4,31.8,52.4,32,52.3"/>
	<path id="path153" class="st3" d="M32.4,45.9c-0.6-2-0.4-4.5,1.5-5.8c1-0.7,4.9-0.8,4.1,1.3c-0.1,0.4-1.8,0.7-2.2,1.2
		c-0.7,0.9-0.7,2.5-0.8,3.6c-0.1,1.4,0,3-0.2,4.4c0,0,0,0,0,0C33.7,49.3,32.9,47.5,32.4,45.9"/>
	<path id="path155" class="st3" d="M32.4,58.6c-0.6,2-0.4,4.5,1.5,5.8c1,0.7,4.9,0.8,4.1-1.3c-0.1-0.4-1.8-0.7-2.2-1.2
		C35,61,35,59.3,34.9,58.3c-0.1-1.4,0-3-0.2-4.4c0,0,0,0,0,0C33.7,55.2,32.9,56.9,32.4,58.6"/>
	<path id="path157" class="st3" d="M38,50.6c2.5,0.3,1.3,4.7-2.2,2.6C33.3,51.7,35.6,50.9,38,50.6"/>
	<path id="path159" class="st3" d="M30.3,182.7c-1.3,2.4-2.8,4.9-3.5,7.5c-0.6,2.4,0,6.9,3.1,7.3c3.1,0.4,4.4-3.9,4.2-6.2
		c-0.3-2.9-2.3-5.9-3.7-8.5C30.3,182.9,30.3,182.8,30.3,182.7"/>
	<path id="path161" class="st3" d="M30.2,182.7c-3.2,1-15.6,4.2-12.7,9.9c1.4,2.8,6.1,0.5,7.7-0.9c2.3-2,3.4-5.4,4.6-8.2
		C30,183.2,30.1,182.9,30.2,182.7"/>
	<path id="path163" class="st3" d="M30.2,182.7c3.2,1,15.6,4.2,12.7,9.9c-1.4,2.8-6.1,0.5-7.7-0.9c-2.3-2-3.5-5.4-4.6-8.2
		C30.5,183.2,30.4,182.9,30.2,182.7"/>
	<path id="path165" class="st3" d="M22.8,182.4c-2.1,0.5-5.2,0.6-6.7-1.3c-1-1.2-0.7-4.3,1.6-3.6c0.4,0.1,0.8,1.6,1.3,1.9
		c1,0.7,3,0.6,4.2,0.7c1.7,0.1,3.4-0.1,5.1,0.1c0,0,0,0,0,0C26.6,181.3,24.7,182,22.8,182.4"/>
	<path id="path167" class="st3" d="M37.5,182.4c2.1,0.5,5.2,0.6,6.7-1.3c1-1.2,0.7-4.3-1.6-3.6c-0.4,0.1-0.8,1.6-1.3,1.9
		c-1,0.7-3,0.6-4.2,0.7c-1.7,0.1-3.4-0.1-5.1,0.1c0,0,0,0,0,0C33.7,181.3,35.7,182,37.5,182.4"/>
	<path id="path169" class="st3" d="M28.3,177.6c0.6-2.3,5.5-1.3,3,1.9C29.8,181.4,28.7,179.9,28.3,177.6"/>
	<path id="path171" class="st3" d="M70.6,182.7c-1.3,2.4-2.8,4.9-3.5,7.5c-0.6,2.4,0,6.9,3.1,7.3c3.1,0.4,4.4-3.9,4.2-6.2
		c-0.3-2.9-2.3-5.9-3.7-8.5C70.7,182.9,70.6,182.8,70.6,182.7"/>
	<path id="path173" class="st3" d="M70.6,182.7c-3.2,1-15.6,4.2-12.7,9.9c1.4,2.8,6.1,0.5,7.7-0.9c2.3-2.1,3.5-5.4,4.6-8.2
		C70.4,183.2,70.5,182.9,70.6,182.7"/>
	<path id="path175" class="st3" d="M70.6,182.7c3.2,1,15.6,4.2,12.7,9.9c-1.4,2.8-6.1,0.5-7.7-0.9c-2.3-2-3.5-5.4-4.6-8.2
		C70.8,183.2,70.7,182.9,70.6,182.7"/>
	<path id="path177" class="st3" d="M63.2,182.4c-2.1,0.5-5.2,0.6-6.7-1.3c-1-1.2-0.7-4.3,1.6-3.6c0.4,0.1,0.8,1.6,1.3,1.9
		c1,0.7,3,0.6,4.2,0.7c1.7,0.1,3.4-0.1,5.1,0.1c0,0,0,0,0,0C67,181.3,65,182,63.2,182.4"/>
	<path id="path179" class="st3" d="M77.9,182.4c2.1,0.5,5.2,0.6,6.7-1.3c1-1.2,0.7-4.3-1.6-3.6c-0.4,0.1-0.8,1.6-1.3,1.9
		c-1,0.7-3,0.6-4.2,0.7c-1.7,0.1-3.4-0.1-5.1,0.1c0,0,0,0,0,0C74.1,181.3,76,182,77.9,182.4"/>
	<path id="path181" class="st3" d="M68.6,177.6c0.5-2.3,5.5-1.3,3,1.9C70.1,181.4,69,179.9,68.6,177.6"/>
	<path id="path183" class="st3" d="M111,182.7c-1.3,2.4-2.8,4.9-3.5,7.5c-0.6,2.4,0,6.9,3.1,7.3c3.1,0.4,4.4-3.9,4.2-6.2
		c-0.3-2.9-2.3-5.9-3.7-8.5C111,182.9,111,182.8,111,182.7"/>
	<path id="path185" class="st3" d="M110.9,182.7c-3.2,1-15.6,4.2-12.7,9.9c1.4,2.8,6.1,0.5,7.7-0.9c2.3-2.1,3.5-5.4,4.6-8.2
		C110.7,183.2,110.8,182.9,110.9,182.7"/>
	<path id="path187" class="st3" d="M110.9,182.7c3.2,1,15.6,4.2,12.7,9.9c-1.4,2.8-6.1,0.5-7.7-0.9c-2.3-2.1-3.5-5.4-4.6-8.2
		C111.2,183.2,111.1,182.9,110.9,182.7"/>
	<path id="path189" class="st3" d="M103.5,182.4c-2.1,0.5-5.2,0.6-6.7-1.3c-1-1.2-0.7-4.3,1.6-3.6c0.4,0.1,0.8,1.6,1.3,1.9
		c1,0.7,3,0.6,4.2,0.7c1.7,0.1,3.4-0.1,5.1,0.1C107.4,181.3,105.4,182,103.5,182.4"/>
	<path id="path191" class="st3" d="M118.2,182.4c2.1,0.5,5.2,0.6,6.7-1.3c1-1.2,0.7-4.3-1.6-3.6c-0.4,0.1-0.8,1.6-1.3,1.9
		c-1,0.7-3,0.6-4.2,0.7c-1.7,0.1-3.4-0.1-5.1,0.1C114.4,181.3,116.4,182,118.2,182.4"/>
	<path id="path193" class="st3" d="M109,177.6c0.5-2.3,5.5-1.3,3,1.9C110.5,181.4,109.4,179.9,109,177.6"/>
	<path id="path195" class="st3" d="M191.7,182.7c-1.3,2.4-2.8,4.9-3.5,7.5c-0.6,2.4,0,6.9,3.1,7.3c3.1,0.4,4.4-3.9,4.2-6.2
		c-0.3-2.9-2.3-5.9-3.7-8.5C191.7,182.9,191.7,182.8,191.7,182.7"/>
	<path id="path197" class="st3" d="M191.6,182.7c-3.2,1-15.6,4.2-12.7,9.9c1.4,2.8,6.1,0.5,7.7-0.9c2.3-2,3.4-5.4,4.6-8.2
		C191.4,183.2,191.5,182.9,191.6,182.7"/>
	<path id="path199" class="st3" d="M191.6,182.7c3.2,1,15.6,4.2,12.7,9.9c-1.4,2.8-6.1,0.5-7.7-0.9c-2.3-2-3.5-5.4-4.6-8.2
		C191.9,183.2,191.8,182.9,191.6,182.7"/>
	<path id="path201" class="st3" d="M184.2,182.4c-2.1,0.5-5.2,0.6-6.7-1.3c-1.1-1.3-0.6-4.2,1.6-3.5c0.3,0.1,0.9,1.6,1.5,2
		c1.1,0.7,3,0.6,4.3,0.6c1.6,0.1,3.3-0.1,4.9,0.1C188.1,181.3,186.1,182,184.2,182.4"/>
	<path id="path203" class="st3" d="M198.9,182.4c2.1,0.5,5.2,0.6,6.7-1.3c1-1.2,0.7-4.3-1.6-3.6c-0.4,0.1-0.8,1.6-1.3,1.9
		c-1,0.7-3,0.6-4.2,0.7c-1.7,0.1-3.4-0.1-5.1,0.1c0,0,0,0,0,0C195.1,181.3,197.1,182,198.9,182.4"/>
	<path id="path205" class="st3" d="M189.7,177.6c0.6-2.3,5.5-1.3,3,1.9C191.2,181.4,190.1,179.9,189.7,177.6"/>
	<path id="path207" class="st3" d="M232,182.7c-1.3,2.4-2.8,4.9-3.5,7.5c-0.6,2.4,0,6.9,3.1,7.3c3.1,0.4,4.4-3.9,4.2-6.2
		c-0.3-2.9-2.3-5.9-3.7-8.5C232.1,182.9,232,182.8,232,182.7"/>
	<path id="path209" class="st3" d="M232,182.7c-3.2,1-15.6,4.2-12.7,9.9c1.4,2.8,6.1,0.5,7.7-0.9c2.3-2.1,3.5-5.4,4.6-8.2
		C231.8,183.2,231.9,182.9,232,182.7"/>
	<path id="path211" class="st3" d="M232,182.7c3.2,1,15.6,4.2,12.7,9.9c-1.4,2.8-6.1,0.5-7.7-0.9c-2.3-2-3.5-5.4-4.6-8.2
		C232.2,183.2,232.1,182.9,232,182.7"/>
	<path id="path213" class="st3" d="M224.6,182.4c-2.1,0.5-5.2,0.6-6.7-1.3c-1-1.2-0.7-4.3,1.6-3.6c0.4,0.1,0.8,1.6,1.3,1.9
		c1,0.7,3,0.6,4.2,0.7c1.7,0.1,3.4-0.1,5.1,0.1c0,0,0,0,0,0C228.4,181.3,226.4,182,224.6,182.4"/>
	<path id="path215" class="st3" d="M239.3,182.4c2.1,0.5,5.2,0.6,6.7-1.3c1-1.2,0.7-4.3-1.6-3.6c-0.4,0.1-0.8,1.6-1.3,1.9
		c-1,0.7-3,0.6-4.2,0.7c-1.7,0.1-3.4-0.1-5.1,0.1c0,0,0,0,0,0C235.5,181.3,237.4,182,239.3,182.4"/>
	<path id="path217" class="st3" d="M230,177.6c0.5-2.3,5.5-1.3,3,1.9C231.5,181.4,230.4,179.9,230,177.6"/>
	<path id="path219" class="st3" d="M272.4,182.7c-1.3,2.4-2.8,4.9-3.5,7.5c-0.6,2.4,0,6.9,3.1,7.3c3.1,0.4,4.4-3.9,4.2-6.2
		c-0.3-2.9-2.3-5.9-3.7-8.5C272.4,182.9,272.4,182.8,272.4,182.7"/>
	<path id="path221" class="st3" d="M272.3,182.7c-3.2,1-15.6,4.2-12.7,9.9c1.4,2.8,6.1,0.5,7.7-0.9c2.3-2.1,3.5-5.4,4.6-8.2
		C272.1,183.2,272.2,182.9,272.3,182.7"/>
	<path id="path223" class="st3" d="M272.3,182.7c3.2,1,15.6,4.2,12.7,9.9c-1.4,2.8-6.1,0.5-7.7-0.9c-2.3-2.1-3.5-5.4-4.6-8.2
		C272.6,183.2,272.5,182.9,272.3,182.7"/>
	<path id="path225" class="st3" d="M264.9,182.4c-2.1,0.5-5.2,0.6-6.7-1.3c-1-1.2-0.7-4.3,1.6-3.6c0.4,0.1,0.8,1.6,1.3,1.9
		c1,0.7,3,0.6,4.2,0.7c1.7,0.1,3.4-0.1,5.1,0.1C268.8,181.3,266.8,182,264.9,182.4"/>
	<path id="path227" class="st3" d="M279.6,182.4c2.1,0.5,5.2,0.6,6.7-1.3c1-1.2,0.7-4.3-1.6-3.6c-0.4,0.1-0.8,1.6-1.3,1.9
		c-1,0.7-3,0.6-4.2,0.7c-1.7,0.1-3.4-0.1-5.1,0.1C275.8,181.3,277.8,182,279.6,182.4"/>
	<path id="path229" class="st3" d="M270.4,177.6c0.5-2.3,5.5-1.3,3,1.9C271.9,181.4,270.8,179.9,270.4,177.6"/>
	<path id="path231" class="st3" d="M151.3,182.7c-1.3,2.4-2.8,4.9-3.5,7.5c-0.6,2.4,0,6.9,3.1,7.3c3.1,0.4,4.4-3.9,4.2-6.2
		c-0.3-2.9-2.3-5.9-3.7-8.5C151.4,182.9,151.3,182.8,151.3,182.7"/>
	<path id="path233" class="st3" d="M151.3,182.7c-3.2,1-15.6,4.2-12.7,9.9c1.4,2.8,6.1,0.5,7.7-0.9c2.3-2.1,3.5-5.4,4.6-8.2
		C151.1,183.2,151.2,182.9,151.3,182.7"/>
	<path id="path235" class="st3" d="M151.3,182.7c3.2,1,15.6,4.2,12.7,9.9c-1.4,2.8-6.1,0.5-7.7-0.9c-2.3-2.1-3.5-5.4-4.6-8.2
		C151.5,183.2,151.4,182.9,151.3,182.7"/>
	<path id="path237" class="st3" d="M143.9,182.4c-2.1,0.5-5.2,0.6-6.7-1.3c-1-1.2-0.7-4.3,1.6-3.6c0.4,0.1,0.8,1.6,1.3,1.9
		c1,0.7,3,0.6,4.2,0.7c1.7,0.1,3.4-0.1,5.1,0.1c0,0,0,0,0,0C147.7,181.3,145.7,182,143.9,182.4"/>
	<path id="path239" class="st3" d="M158.6,182.4c2.1,0.5,5.2,0.6,6.7-1.3c1-1.2,0.7-4.3-1.6-3.6c-0.4,0.1-0.8,1.6-1.3,1.9
		c-1,0.7-3,0.6-4.2,0.7c-1.7,0.1-3.4-0.1-5.1,0.1C154.7,181.3,156.8,182,158.6,182.4"/>
	<path id="path241" class="st3" d="M149.3,177.6c0.5-2.3,5.5-1.3,3,1.9C150.8,181.4,149.7,179.9,149.3,177.6"/>
	<path id="path243" class="st3" d="M30.3,26.7c-1.3-2.4-2.8-4.9-3.5-7.5c-0.6-2.4,0-6.9,3.1-7.3c3.1-0.4,4.4,3.9,4.2,6.2
		c-0.3,2.9-2.3,5.9-3.7,8.5C30.3,26.6,30.3,26.6,30.3,26.7"/>
	<path id="path245" class="st3" d="M30.2,26.7c-3.2-1-15.6-4.2-12.7-9.9c1.4-2.8,6.1-0.5,7.7,0.9c2.3,2,3.4,5.4,4.6,8.2
		C30,26.2,30.1,26.5,30.2,26.7"/>
	<path id="path247" class="st3" d="M30.2,26.8c3.2-1,15.6-4.2,12.7-9.9c-1.4-2.8-6.1-0.5-7.7,0.9c-2.3,2-3.5,5.4-4.6,8.2
		C30.5,26.2,30.4,26.5,30.2,26.8"/>
	<path id="path249" class="st3" d="M22.8,27.1c-2.1-0.5-5.2-0.6-6.7,1.3c-1,1.2-0.7,4.3,1.6,3.6c0.4-0.1,0.8-1.6,1.3-1.9
		c1-0.7,3-0.6,4.2-0.7c1.7-0.1,3.4,0.1,5.1-0.1c0,0,0,0,0,0C26.6,28.2,24.7,27.5,22.8,27.1"/>
	<path id="path251" class="st3" d="M37.5,27.1c2.1-0.5,5.2-0.6,6.7,1.3c1,1.2,0.7,4.3-1.6,3.6c-0.4-0.1-0.8-1.6-1.3-1.9
		c-1-0.7-3-0.6-4.2-0.7c-1.7-0.1-3.4,0.1-5.1-0.1c0,0,0,0,0,0C33.7,28.2,35.7,27.5,37.5,27.1"/>
	<path id="path253" class="st3" d="M28.3,31.9c0.6,2.3,5.5,1.3,3-1.9C29.8,28.1,28.7,29.5,28.3,31.9"/>
	<path id="path255" class="st3" d="M70.6,26.7c-1.3-2.4-2.8-4.9-3.5-7.5c-0.6-2.4,0-6.9,3.1-7.3c3.1-0.4,4.4,3.9,4.2,6.2
		c-0.3,2.9-2.3,5.9-3.7,8.5C70.7,26.6,70.6,26.6,70.6,26.7"/>
	<path id="path257" class="st3" d="M70.6,26.8c-3.2-1-15.6-4.2-12.7-9.9c1.4-2.8,6.1-0.5,7.7,0.9c2.3,2.1,3.5,5.4,4.6,8.2
		C70.4,26.2,70.5,26.5,70.6,26.8"/>
	<path id="path259" class="st3" d="M70.6,26.7c3.2-1,15.6-4.2,12.7-9.9c-1.4-2.8-6.1-0.5-7.7,0.9c-2.3,2-3.5,5.4-4.6,8.2
		C70.8,26.2,70.7,26.5,70.6,26.7"/>
	<path id="path261" class="st3" d="M63.2,27.1c-2.1-0.5-5.2-0.6-6.7,1.3c-1,1.2-0.7,4.3,1.6,3.6c0.4-0.1,0.8-1.6,1.3-1.9
		c1-0.7,3-0.6,4.2-0.7c1.7-0.1,3.4,0.1,5.1-0.1c0,0,0,0,0,0C67,28.2,65,27.5,63.2,27.1"/>
	<path id="path263" class="st3" d="M77.9,27.1c2.1-0.5,5.2-0.6,6.7,1.3c1,1.2,0.7,4.3-1.6,3.6c-0.4-0.1-0.8-1.6-1.3-1.9
		c-1-0.7-3-0.6-4.2-0.7c-1.7-0.1-3.4,0.1-5.1-0.1c0,0,0,0,0,0C74.1,28.2,76,27.5,77.9,27.1"/>
	<path id="path265" class="st3" d="M68.6,31.9c0.5,2.3,5.5,1.3,3-1.9C70.1,28.1,69,29.5,68.6,31.9"/>
	<path id="path267" class="st3" d="M111,26.7c-1.3-2.4-2.8-4.9-3.5-7.5c-0.6-2.4,0-6.9,3.1-7.3c3.1-0.4,4.4,3.9,4.2,6.2
		c-0.3,2.9-2.3,5.9-3.7,8.5C111,26.6,111,26.6,111,26.7"/>
	<path id="path269" class="st3" d="M110.9,26.8c-3.2-1-15.6-4.2-12.7-9.9c1.4-2.8,6.1-0.5,7.7,0.9c2.3,2,3.5,5.4,4.6,8.2
		C110.7,26.2,110.8,26.5,110.9,26.8"/>
	<path id="path271" class="st3" d="M110.9,26.8c3.2-1,15.6-4.2,12.7-9.9c-1.4-2.8-6.1-0.5-7.7,0.9c-2.3,2.1-3.5,5.4-4.6,8.2
		C111.2,26.2,111.1,26.5,110.9,26.8"/>
	<path id="path273" class="st3" d="M103.5,27.1c-2.1-0.5-5.2-0.6-6.7,1.3c-1,1.2-0.7,4.3,1.6,3.6c0.4-0.1,0.8-1.6,1.3-1.9
		c1-0.7,3-0.6,4.2-0.7c1.7-0.1,3.4,0.1,5.1-0.1C107.4,28.1,105.4,27.5,103.5,27.1"/>
	<path id="path275" class="st3" d="M118.2,27.1c2.1-0.5,5.2-0.6,6.7,1.3c1,1.2,0.7,4.3-1.6,3.6c-0.4-0.1-0.8-1.6-1.3-1.9
		c-1-0.7-3-0.6-4.2-0.7c-1.7-0.1-3.4,0.1-5.1-0.1C114.4,28.1,116.4,27.5,118.2,27.1"/>
	<path id="path277" class="st3" d="M109,31.9c0.6,2.3,5.5,1.3,3-1.9C110.5,28.1,109.4,29.5,109,31.9"/>
	<path id="path279" class="st3" d="M191.7,26.7c-1.3-2.4-2.8-4.9-3.5-7.5c-0.6-2.4,0-6.9,3.1-7.3c3.1-0.4,4.4,3.9,4.2,6.2
		c-0.3,2.9-2.3,5.9-3.7,8.5C191.7,26.6,191.7,26.6,191.7,26.7"/>
	<path id="path281" class="st3" d="M191.6,26.7c-3.2-1-15.6-4.2-12.7-9.9c1.4-2.8,6.1-0.5,7.7,0.9c2.3,2,3.4,5.4,4.6,8.2
		C191.4,26.2,191.5,26.5,191.6,26.7"/>
	<path id="path283" class="st3" d="M191.6,26.8c3.2-1,15.6-4.2,12.7-9.9c-1.4-2.8-6.1-0.5-7.7,0.9c-2.3,2-3.5,5.4-4.6,8.2
		C191.9,26.2,191.8,26.5,191.6,26.8"/>
	<path id="path285" class="st3" d="M184.2,27.1c-2.1-0.5-5.2-0.6-6.7,1.3c-1.1,1.3-0.6,4.2,1.6,3.5c0.3-0.1,0.9-1.6,1.5-2
		c1.1-0.7,3-0.6,4.3-0.6c1.6-0.1,3.3,0.1,4.9-0.1C188.1,28.2,186.1,27.5,184.2,27.1"/>
	<path id="path287" class="st3" d="M198.9,27.1c2.1-0.5,5.2-0.6,6.7,1.3c1,1.2,0.7,4.3-1.6,3.6c-0.4-0.1-0.8-1.6-1.3-1.9
		c-1-0.7-3-0.6-4.2-0.7c-1.7-0.1-3.4,0.1-5.1-0.1c0,0,0,0,0,0C195.1,28.2,197.1,27.5,198.9,27.1"/>
	<path id="path289" class="st3" d="M189.7,31.9c0.6,2.3,5.5,1.3,3-1.9C191.2,28.1,190.1,29.5,189.7,31.9"/>
	<path id="path291" class="st3" d="M232,26.7c-1.3-2.4-2.8-4.9-3.5-7.5c-0.6-2.4,0-6.9,3.1-7.3c3.1-0.4,4.4,3.9,4.2,6.2
		c-0.3,2.9-2.3,5.9-3.7,8.5C232.1,26.6,232,26.6,232,26.7"/>
	<path id="path293" class="st3" d="M232,26.8c-3.2-1-15.6-4.2-12.7-9.9c1.4-2.8,6.1-0.5,7.7,0.9c2.3,2.1,3.5,5.4,4.6,8.2
		C231.8,26.2,231.9,26.5,232,26.8"/>
	<path id="path295" class="st3" d="M232,26.7c3.2-1,15.6-4.2,12.7-9.9c-1.4-2.8-6.1-0.5-7.7,0.9c-2.3,2-3.5,5.4-4.6,8.2
		C232.2,26.2,232.1,26.5,232,26.7"/>
	<path id="path297" class="st3" d="M224.6,27.1c-2.1-0.5-5.2-0.6-6.7,1.3c-1,1.2-0.7,4.3,1.6,3.6c0.4-0.1,0.8-1.6,1.3-1.9
		c1-0.7,3-0.6,4.2-0.7c1.7-0.1,3.4,0.1,5.1-0.1c0,0,0,0,0,0C228.4,28.2,226.4,27.5,224.6,27.1"/>
	<path id="path299" class="st3" d="M239.3,27.1c2.1-0.5,5.2-0.6,6.7,1.3c1,1.2,0.7,4.3-1.6,3.6c-0.4-0.1-0.8-1.6-1.3-1.9
		c-1-0.7-3-0.6-4.2-0.7c-1.7-0.1-3.4,0.1-5.1-0.1c0,0,0,0,0,0C235.5,28.2,237.4,27.5,239.3,27.1"/>
	<path id="path301" class="st3" d="M230,31.9c0.5,2.3,5.5,1.3,3-1.9C231.5,28.1,230.4,29.5,230,31.9"/>
	<path id="path303" class="st3" d="M272.4,26.7c-1.3-2.4-2.8-4.9-3.5-7.5c-0.6-2.4,0-6.9,3.1-7.3c3.1-0.4,4.4,3.9,4.2,6.2
		c-0.3,2.9-2.3,5.9-3.7,8.5C272.4,26.6,272.4,26.6,272.4,26.7"/>
	<path id="path305" class="st3" d="M272.3,26.8c-3.2-1-15.6-4.2-12.7-9.9c1.4-2.8,6.1-0.5,7.7,0.9c2.3,2.1,3.5,5.4,4.6,8.2
		C272.1,26.2,272.2,26.5,272.3,26.8"/>
	<path id="path307" class="st3" d="M272.3,26.8c3.2-1,15.6-4.2,12.7-9.9c-1.4-2.8-6.1-0.5-7.7,0.9c-2.3,2.1-3.5,5.4-4.6,8.2
		C272.6,26.2,272.5,26.5,272.3,26.8"/>
	<path id="path309" class="st3" d="M264.9,27.1c-2.1-0.5-5.2-0.6-6.7,1.3c-1,1.2-0.7,4.3,1.6,3.6c0.4-0.1,0.8-1.6,1.3-1.9
		c1-0.7,3-0.6,4.2-0.7c1.7-0.1,3.4,0.1,5.1-0.1C268.8,28.1,266.8,27.5,264.9,27.1"/>
	<path id="path311" class="st3" d="M279.6,27.1c2.1-0.5,5.2-0.6,6.7,1.3c1,1.2,0.7,4.3-1.6,3.6c-0.4-0.1-0.8-1.6-1.3-1.9
		c-1-0.7-3-0.6-4.2-0.7c-1.7-0.1-3.4,0.1-5.1-0.1C275.8,28.1,277.8,27.5,279.6,27.1"/>
	<path id="path313" class="st3" d="M270.4,31.9c0.6,2.3,5.5,1.3,3-1.9C271.9,28.1,270.8,29.5,270.4,31.9"/>
	<path id="path315" class="st3" d="M151.3,26.7c-1.3-2.4-2.8-4.9-3.5-7.5c-0.6-2.4,0-6.9,3.1-7.3c3.1-0.4,4.4,3.9,4.2,6.2
		c-0.3,2.9-2.3,5.9-3.7,8.5C151.4,26.6,151.3,26.6,151.3,26.7"/>
	<path id="path317" class="st3" d="M151.3,26.8c-3.2-1-15.6-4.2-12.7-9.9c1.4-2.8,6.1-0.5,7.7,0.9c2.3,2.1,3.5,5.4,4.6,8.2
		C151.1,26.2,151.2,26.5,151.3,26.8"/>
	<path id="path319" class="st3" d="M151.3,26.8c3.2-1,15.6-4.2,12.7-9.9c-1.4-2.8-6.1-0.5-7.7,0.9c-2.3,2.1-3.5,5.4-4.6,8.2
		C151.5,26.2,151.4,26.5,151.3,26.8"/>
	<path id="path321" class="st3" d="M143.9,27.1c-2.1-0.5-5.2-0.6-6.7,1.3c-1,1.2-0.7,4.3,1.6,3.6c0.4-0.1,0.8-1.6,1.3-1.9
		c1-0.7,3-0.6,4.2-0.7c1.7-0.1,3.4,0.1,5.1-0.1c0,0,0,0,0,0C147.7,28.2,145.7,27.5,143.9,27.1"/>
	<path id="path323" class="st3" d="M158.6,27.1c2.1-0.5,5.2-0.6,6.7,1.3c1,1.2,0.7,4.3-1.6,3.6c-0.4-0.1-0.8-1.6-1.3-1.9
		c-1-0.7-3-0.6-4.2-0.7c-1.7-0.1-3.4,0.1-5.1-0.1C154.7,28.1,156.8,27.5,158.6,27.1"/>
	<path id="path325" class="st3" d="M149.3,31.9c0.5,2.3,5.5,1.3,3-1.9C150.8,28.1,149.7,29.5,149.3,31.9"/>
	<path id="path327" class="st4" d="M119.9,91.7L119.9,91.7"/>
	<path id="path329" class="st1" d="M162.7,94.8c0,2,0.2,19.9-0.2,19.9c-4.1,0-8.2,0-12.2,0c-2.4,0-4.7,0-7.1,0c-0.5,0-3.2,0.4-3.6,0
		c-1.4-1.3,0.8-19.9,0.2-19.9C147.5,94.8,155.1,94.8,162.7,94.8"/>
	<path id="path331" class="st5" d="M158.4,96c1,0.8,1.9,1.7,2.9,2.5c-1.4,0.4-2.9,0.8-4.3,1.2C157.5,98.5,157.9,97.3,158.4,96"/>
	<path id="path333" class="st5" d="M161.3,110.9c-1,0.8-1.9,1.7-2.9,2.5c-0.5-1.2-1-2.5-1.4-3.7
		C158.4,110.1,159.9,110.5,161.3,110.9"/>
	<path id="path335" class="st5" d="M141.2,111c1,0.8,1.9,1.7,2.9,2.5c0.5-1.2,1-2.5,1.4-3.7C144.1,110.2,142.7,110.6,141.2,111"/>
	<path id="path337" class="st5" d="M141.1,98.5c1-0.8,1.9-1.7,2.9-2.5c0.5,1.2,1,2.5,1.4,3.7C144,99.3,142.6,98.9,141.1,98.5"/>
	<path id="path339" class="st5" d="M162.7,104.7c-2.9-0.8-5.7-1.6-8.5-2.5c-1.1-0.3-2.5-6.3-3-7.5c-0.5,1.2-1.9,7.2-3,7.5
		c-2.8,0.8-5.7,1.6-8.5,2.5c2.8,0.8,5.7,1.6,8.5,2.5c1.1,0.3,2.5,6.3,3,7.5c0.5-1.2,1.9-7.2,3-7.5
		C157,106.4,159.9,105.5,162.7,104.7"/>
	<path id="path341" class="st2" d="M158.4,165.6c-1.9-0.4-3.8-0.8-5.6-1.2c-0.7-0.1-1.4-4.2-1.6-5c-0.2,0.8-0.9,4.9-1.6,5
		c-1.9,0.4-3.8,0.8-5.6,1.2c1.9,0.4,3.8,0.8,5.6,1.2c0.7,0.1,1.4,4.2,1.6,5c0.2-0.8,0.9-4.9,1.6-5
		C154.7,166.4,156.5,166,158.4,165.6"/>
	<path id="path343" class="st2" d="M178.6,165.6c-1.9-0.4-3.8-0.8-5.6-1.2c-0.7-0.1-1.4-4.2-1.6-5c-0.2,0.8-0.9,4.9-1.6,5
		c-1.9,0.4-3.8,0.8-5.6,1.2c1.9,0.4,3.8,0.8,5.6,1.2c0.7,0.1,1.4,4.2,1.6,5c0.2-0.8,0.9-4.9,1.6-5
		C174.9,166.4,176.7,166,178.6,165.6"/>
	<path id="path345" class="st2" d="M138.3,165.6c-1.9-0.4-3.8-0.8-5.6-1.2c-0.7-0.1-1.4-4.2-1.6-5c-0.2,0.8-0.9,4.9-1.6,5
		c-1.9,0.4-3.8,0.8-5.6,1.2c1.9,0.4,3.8,0.8,5.6,1.2c0.7,0.1,1.4,4.2,1.6,5c0.2-0.8,0.9-4.9,1.6-5
		C134.5,166.4,136.4,166,138.3,165.6"/>
	<path id="path347" class="st2" d="M158.4,148.2c-1.9-0.4-3.8-0.8-5.6-1.2c-0.7-0.1-1.4-4.2-1.6-5c-0.2,0.8-0.9,4.9-1.6,5
		c-1.9,0.4-3.8,0.8-5.6,1.2c1.9,0.4,3.8,0.8,5.6,1.2c0.7,0.1,1.4,4.2,1.6,5c0.2-0.8,0.9-4.9,1.6-5
		C154.7,149,156.5,148.6,158.4,148.2"/>
	<path id="path349" class="st2" d="M178.6,148.2c-1.9-0.4-3.8-0.8-5.6-1.2c-0.7-0.1-1.4-4.2-1.6-5c-0.2,0.8-0.9,4.9-1.6,5
		c-1.9,0.4-3.8,0.8-5.6,1.2c1.9,0.4,3.8,0.8,5.6,1.2c0.7,0.1,1.4,4.2,1.6,5c0.2-0.8,0.9-4.9,1.6-5
		C174.9,149,176.7,148.6,178.6,148.2"/>
	<path id="path351" class="st2" d="M138.3,148.2c-1.9-0.4-3.8-0.8-5.6-1.2c-0.7-0.1-1.4-4.2-1.6-5c-0.2,0.8-0.9,4.9-1.6,5
		c-1.9,0.4-3.8,0.8-5.6,1.2c1.9,0.4,3.8,0.8,5.6,1.2c0.7,0.1,1.4,4.2,1.6,5c0.2-0.8,0.9-4.9,1.6-5
		C134.5,149,136.4,148.6,138.3,148.2"/>
	<path id="path353" class="st2" d="M99.3,113.4c-1.9-0.4-3.8-0.8-5.6-1.2c-0.7-0.1-1.4-4.2-1.6-5c-0.2,0.8-0.9,4.9-1.6,5
		c-1.9,0.4-3.8,0.8-5.6,1.2c1.9,0.4,3.8,0.8,5.6,1.2c0.7,0.1,1.4,4.2,1.6,5c0.2-0.8,0.9-4.9,1.6-5C95.6,114.2,97.5,113.8,99.3,113.4
		"/>
	<path id="path355" class="st2" d="M99.3,96c-1.9-0.4-3.8-0.8-5.6-1.2c-0.7-0.1-1.4-4.2-1.6-5c-0.2,0.8-0.9,4.9-1.6,5
		c-1.9,0.4-3.8,0.8-5.6,1.2c1.9,0.4,3.8,0.8,5.6,1.2c0.7,0.1,1.4,4.2,1.6,5c0.2-0.8,0.9-4.9,1.6-5C95.6,96.8,97.5,96.4,99.3,96"/>
	<path id="path357" class="st2" d="M99.4,130.8c-1.9-0.4-3.8-0.8-5.6-1.2c-0.7-0.1-1.4-4.2-1.6-5c-0.2,0.8-0.9,4.9-1.6,5
		c-1.9,0.4-3.8,0.8-5.6,1.2c1.9,0.4,3.8,0.8,5.6,1.2c0.7,0.1,1.4,4.2,1.6,5c0.2-0.8,0.9-4.9,1.6-5C95.6,131.6,97.5,131.2,99.4,130.8
		"/>
	<path id="path359" class="st2" d="M99.3,78.7c-1.9-0.4-3.8-0.8-5.6-1.2c-0.7-0.1-1.4-4.2-1.6-5c-0.2,0.8-0.9,4.9-1.6,5
		c-1.9,0.4-3.8,0.8-5.6,1.2c1.9,0.4,3.8,0.8,5.6,1.2c0.7,0.1,1.4,4.2,1.6,5c0.2-0.8,0.9-4.9,1.6-5C95.6,79.5,97.4,79.1,99.3,78.7"/>
	<path id="path361" class="st2" d="M99.3,165.5c-1.9-0.4-3.8-0.8-5.6-1.2c-0.7-0.1-1.4-4.2-1.6-5c-0.2,0.8-0.9,4.9-1.6,5
		c-1.9,0.4-3.8,0.8-5.6,1.2c1.9,0.4,3.8,0.8,5.6,1.2c0.7,0.1,1.4,4.2,1.6,5c0.2-0.8,0.9-4.9,1.6-5C95.6,166.3,97.5,165.9,99.3,165.5
		"/>
	<path id="path363" class="st2" d="M99.3,148.2c-1.9-0.4-3.8-0.8-5.6-1.2c-0.7-0.1-1.4-4.2-1.6-5c-0.2,0.8-0.9,4.9-1.6,5
		c-1.9,0.4-3.8,0.8-5.6,1.2c1.9,0.4,3.8,0.8,5.6,1.2c0.7,0.1,1.4,4.2,1.6,5c0.2-0.8,0.9-4.9,1.6-5C95.6,149,97.5,148.6,99.3,148.2"
		/>
	<path id="path365" class="st2" d="M79.2,113.4c-1.9-0.4-3.8-0.8-5.6-1.2c-0.7-0.1-1.4-4.2-1.6-5c-0.2,0.8-0.9,4.9-1.6,5
		c-1.9,0.4-3.8,0.8-5.6,1.2c1.9,0.4,3.8,0.8,5.6,1.2c0.7,0.1,1.4,4.2,1.6,5c0.2-0.8,0.9-4.9,1.6-5C75.4,114.2,77.3,113.8,79.2,113.4
		"/>
	<path id="path367" class="st2" d="M79.2,96c-1.9-0.4-3.8-0.8-5.6-1.2c-0.7-0.1-1.4-4.2-1.6-5c-0.2,0.8-0.9,4.9-1.6,5
		c-1.9,0.4-3.8,0.8-5.6,1.2c1.9,0.4,3.8,0.8,5.6,1.2c0.7,0.1,1.4,4.2,1.6,5c0.2-0.8,0.9-4.9,1.6-5C75.4,96.8,77.3,96.4,79.2,96"/>
	<path id="path369" class="st2" d="M79.2,130.8c-1.9-0.4-3.8-0.8-5.6-1.2c-0.7-0.1-1.4-4.2-1.6-5c-0.2,0.8-0.9,4.9-1.6,5
		c-1.9,0.4-3.8,0.8-5.6,1.2c1.9,0.4,3.8,0.8,5.6,1.2c0.7,0.1,1.4,4.2,1.6,5c0.2-0.8,0.9-4.9,1.6-5C75.4,131.6,77.3,131.2,79.2,130.8
		"/>
	<path id="path371" class="st2" d="M79.1,78.7c-1.9-0.4-3.8-0.8-5.6-1.2c-0.7-0.1-1.4-4.2-1.6-5c-0.2,0.8-0.9,4.9-1.6,5
		c-1.9,0.4-3.8,0.8-5.6,1.2c1.9,0.4,3.8,0.8,5.6,1.2c0.7,0.1,1.4,4.2,1.6,5c0.2-0.8,0.9-4.9,1.6-5C75.4,79.5,77.3,79.1,79.1,78.7"/>
	<path id="path373" class="st2" d="M79.2,165.5c-1.9-0.4-3.8-0.8-5.6-1.2c-0.7-0.1-1.4-4.2-1.6-5c-0.2,0.8-0.9,4.9-1.6,5
		c-1.9,0.4-3.8,0.8-5.6,1.2c1.9,0.4,3.8,0.8,5.6,1.2c0.7,0.1,1.4,4.2,1.6,5c0.2-0.8,0.9-4.9,1.6-5C75.4,166.3,77.3,165.9,79.2,165.5
		"/>
	<path id="path375" class="st2" d="M79.2,148.2c-1.9-0.4-3.8-0.8-5.6-1.2c-0.7-0.1-1.4-4.2-1.6-5c-0.2,0.8-0.9,4.9-1.6,5
		c-1.9,0.4-3.8,0.8-5.6,1.2c1.9,0.4,3.8,0.8,5.6,1.2c0.7,0.1,1.4,4.2,1.6,5c0.2-0.8,0.9-4.9,1.6-5C75.4,149,77.3,148.6,79.2,148.2"
		/>
	<path id="path377" class="st2" d="M59,113.4c-1.9-0.4-3.8-0.8-5.6-1.2c-0.7-0.1-1.4-4.2-1.6-5c-0.2,0.8-0.9,4.9-1.6,5
		c-1.9,0.4-3.8,0.8-5.6,1.2c1.9,0.4,3.8,0.8,5.6,1.2c0.7,0.1,1.4,4.2,1.6,5c0.2-0.8,0.9-4.9,1.6-5C55.2,114.2,57.1,113.8,59,113.4"
		/>
	<path id="path379" class="st2" d="M59,96c-1.9-0.4-3.8-0.8-5.6-1.2c-0.7-0.1-1.4-4.2-1.6-5c-0.2,0.8-0.9,4.9-1.6,5
		c-1.9,0.4-3.8,0.8-5.6,1.2c1.9,0.4,3.8,0.8,5.6,1.2c0.7,0.1,1.4,4.2,1.6,5c0.2-0.8,0.9-4.9,1.6-5C55.2,96.8,57.1,96.4,59,96"/>
	<path id="path381" class="st2" d="M59,130.8c-1.9-0.4-3.8-0.8-5.6-1.2c-0.7-0.1-1.4-4.2-1.6-5c-0.2,0.8-0.9,4.9-1.6,5
		c-1.9,0.4-3.8,0.8-5.6,1.2c1.9,0.4,3.8,0.8,5.6,1.2c0.7,0.1,1.4,4.2,1.6,5c0.2-0.8,0.9-4.9,1.6-5C55.3,131.6,57.1,131.2,59,130.8"
		/>
	<path id="path383" class="st2" d="M59,78.7c-1.9-0.4-3.8-0.8-5.6-1.2c-0.7-0.1-1.4-4.2-1.6-5c-0.2,0.8-0.9,4.9-1.6,5
		c-1.9,0.4-3.8,0.8-5.6,1.2c1.9,0.4,3.8,0.8,5.6,1.2c0.7,0.1,1.4,4.2,1.6,5c0.2-0.8,0.9-4.9,1.6-5C55.2,79.5,57.1,79.1,59,78.7"/>
	<path id="path385" class="st2" d="M59,165.5c-1.9-0.4-3.8-0.8-5.6-1.2c-0.7-0.1-1.4-4.2-1.6-5c-0.2,0.8-0.9,4.9-1.6,5
		c-1.9,0.4-3.8,0.8-5.6,1.2c1.9,0.4,3.8,0.8,5.6,1.2c0.7,0.1,1.4,4.2,1.6,5c0.2-0.8,0.9-4.9,1.6-5C55.2,166.3,57.1,165.9,59,165.5"
		/>
	<path id="path387" class="st2" d="M59,148.2c-1.9-0.4-3.8-0.8-5.6-1.2c-0.7-0.1-1.4-4.2-1.6-5c-0.2,0.8-0.9,4.9-1.6,5
		c-1.9,0.4-3.8,0.8-5.6,1.2c1.9,0.4,3.8,0.8,5.6,1.2c0.7,0.1,1.4,4.2,1.6,5c0.2-0.8,0.9-4.9,1.6-5C55.2,149,57.1,148.6,59,148.2"/>
	<path id="path389" class="st2" d="M118.1,113.4c-1.9-0.4-3.8-0.8-5.6-1.2c-0.7-0.1-1.4-4.2-1.6-5c-0.2,0.8-0.9,4.9-1.6,5
		c-1.9,0.4-3.8,0.8-5.6,1.2c1.9,0.4,3.8,0.8,5.6,1.2c0.7,0.1,1.4,4.2,1.6,5c0.2-0.8,0.9-4.9,1.6-5
		C114.3,114.2,116.2,113.8,118.1,113.4"/>
	<path id="path391" class="st2" d="M118.1,96c-1.9-0.4-3.8-0.8-5.6-1.2c-0.7-0.1-1.4-4.2-1.6-5c-0.2,0.8-0.9,4.9-1.6,5
		c-1.9,0.4-3.8,0.8-5.6,1.2c1.9,0.4,3.8,0.8,5.6,1.2c0.7,0.1,1.4,4.2,1.6,5c0.2-0.8,0.9-4.9,1.6-5C114.3,96.8,116.2,96.4,118.1,96"
		/>
	<path id="path393" class="st2" d="M118.1,130.8c-1.9-0.4-3.8-0.8-5.6-1.2c-0.7-0.1-1.4-4.2-1.6-5c-0.2,0.8-0.9,4.9-1.6,5
		c-1.9,0.4-3.8,0.8-5.6,1.2c1.9,0.4,3.8,0.8,5.6,1.2c0.7,0.1,1.4,4.2,1.6,5c0.2-0.8,0.9-4.9,1.6-5
		C114.4,131.6,116.2,131.2,118.1,130.8"/>
	<path id="path395" class="st2" d="M118.1,78.7c-1.9-0.4-3.8-0.8-5.6-1.2c-0.7-0.1-1.4-4.2-1.6-5c-0.2,0.8-0.9,4.9-1.6,5
		c-1.9,0.4-3.8,0.8-5.6,1.2c1.9,0.4,3.8,0.8,5.6,1.2c0.7,0.1,1.4,4.2,1.6,5c0.2-0.8,0.9-4.9,1.6-5C114.3,79.5,116.2,79.1,118.1,78.7
		"/>
	<path id="path397" class="st2" d="M118.1,165.5c-1.9-0.4-3.8-0.8-5.6-1.2c-0.7-0.1-1.4-4.2-1.6-5c-0.2,0.8-0.9,4.9-1.6,5
		c-1.9,0.4-3.8,0.8-5.6,1.2c1.9,0.4,3.8,0.8,5.6,1.2c0.7,0.1,1.4,4.2,1.6,5c0.2-0.8,0.9-4.9,1.6-5
		C114.3,166.3,116.2,165.9,118.1,165.5"/>
	<path id="path399" class="st2" d="M118.1,148.2c-1.9-0.4-3.8-0.8-5.6-1.2c-0.7-0.1-1.4-4.2-1.6-5c-0.2,0.8-0.9,4.9-1.6,5
		c-1.9,0.4-3.8,0.8-5.6,1.2c1.9,0.4,3.8,0.8,5.6,1.2c0.7,0.1,1.4,4.2,1.6,5c0.2-0.8,0.9-4.9,1.6-5
		C114.3,149,116.2,148.6,118.1,148.2"/>
	<path id="path401" class="st2" d="M198.8,96c-1.9-0.4-3.8-0.8-5.6-1.2c-0.7-0.1-1.4-4.2-1.6-5c-0.2,0.8-0.9,4.9-1.6,5
		c-1.9,0.4-3.8,0.8-5.6,1.2c1.9,0.4,3.8,0.8,5.6,1.2c0.7,0.1,1.4,4.2,1.6,5c0.2-0.8,0.9-4.9,1.6-5C195,96.8,196.9,96.4,198.8,96"/>
	<path id="path403" class="st2" d="M198.8,78.6c-1.9-0.4-3.8-0.8-5.6-1.2c-0.7-0.1-1.4-4.2-1.6-5c-0.2,0.8-0.9,4.9-1.6,5
		c-1.9,0.4-3.8,0.8-5.6,1.2c1.9,0.4,3.8,0.8,5.6,1.2c0.7,0.1,1.4,4.2,1.6,5c0.2-0.8,0.9-4.9,1.6-5C195,79.4,196.9,79,198.8,78.6"/>
	<path id="path405" class="st2" d="M198.8,130.8c-1.9-0.4-3.8-0.8-5.6-1.2c-0.7-0.1-1.4-4.2-1.6-5c-0.2,0.8-0.9,4.9-1.6,5
		c-1.9,0.4-3.8,0.8-5.6,1.2c1.9,0.4,3.8,0.8,5.6,1.2c0.7,0.1,1.4,4.2,1.6,5c0.2-0.8,0.9-4.9,1.6-5
		C195,131.6,196.9,131.2,198.8,130.8"/>
	<path id="path407" class="st2" d="M198.8,113.4c-1.9-0.4-3.8-0.8-5.6-1.2c-0.7-0.1-1.4-4.2-1.6-5c-0.2,0.8-0.9,4.9-1.6,5
		c-1.9,0.4-3.8,0.8-5.6,1.2c1.9,0.4,3.8,0.8,5.6,1.2c0.7,0.1,1.4,4.2,1.6,5c0.2-0.8,0.9-4.9,1.6-5
		C195,114.2,196.9,113.8,198.8,113.4"/>
	<path id="path409" class="st2" d="M219,78.6c-1.9-0.4-3.8-0.8-5.6-1.2c-0.7-0.1-1.4-4.2-1.6-5c-0.2,0.8-0.9,4.9-1.6,5
		c-1.9,0.4-3.8,0.8-5.6,1.2c1.9,0.4,3.8,0.8,5.6,1.2c0.7,0.1,1.4,4.2,1.6,5c0.2-0.8,0.9-4.9,1.6-5C215.2,79.5,217.1,79,219,78.6"/>
	<path id="path411" class="st2" d="M219,96c-1.9-0.4-3.8-0.8-5.6-1.2c-0.7-0.1-1.4-4.2-1.6-5c-0.2,0.8-0.9,4.9-1.6,5
		c-1.9,0.4-3.8,0.8-5.6,1.2c1.9,0.4,3.8,0.8,5.6,1.2c0.7,0.1,1.4,4.2,1.6,5c0.2-0.8,0.9-4.9,1.6-5C215.2,96.8,217.1,96.4,219,96"/>
	<path id="path413" class="st2" d="M219,113.4c-1.9-0.4-3.8-0.8-5.6-1.2c-0.7-0.1-1.4-4.2-1.6-5c-0.2,0.8-0.9,4.9-1.6,5
		c-1.9,0.4-3.8,0.8-5.6,1.2c1.9,0.4,3.8,0.8,5.6,1.2c0.7,0.1,1.4,4.2,1.6,5c0.2-0.8,0.9-4.9,1.6-5
		C215.2,114.2,217.1,113.8,219,113.4"/>
	<path id="path415" class="st2" d="M219,130.8c-1.9-0.4-3.8-0.8-5.6-1.2c-0.7-0.1-1.4-4.2-1.6-5c-0.2,0.8-0.9,4.9-1.6,5
		c-1.9,0.4-3.8,0.8-5.6,1.2c1.9,0.4,3.8,0.8,5.6,1.2c0.7,0.1,1.4,4.2,1.6,5c0.2-0.8,0.9-4.9,1.6-5
		C215.2,131.6,217.1,131.2,219,130.8"/>
	<path id="path417" class="st2" d="M198.8,165.6c-1.9-0.4-3.8-0.8-5.6-1.2c-0.7-0.1-1.4-4.2-1.6-5c-0.2,0.8-0.9,4.9-1.6,5
		c-1.9,0.4-3.8,0.8-5.6,1.2c1.9,0.4,3.8,0.8,5.6,1.2c0.7,0.1,1.4,4.2,1.6,5c0.2-0.8,0.9-4.9,1.6-5C195,166.4,196.9,166,198.8,165.6"
		/>
	<path id="path419" class="st2" d="M219,165.6c-1.9-0.4-3.8-0.8-5.6-1.2c-0.7-0.1-1.4-4.2-1.6-5c-0.2,0.8-0.9,4.9-1.6,5
		c-1.9,0.4-3.8,0.8-5.6,1.2c1.9,0.4,3.8,0.8,5.6,1.2c0.7,0.1,1.4,4.2,1.6,5c0.2-0.8,0.9-4.9,1.6-5C215.2,166.4,217.1,166,219,165.6"
		/>
	<path id="path421" class="st2" d="M198.8,148.2c-1.9-0.4-3.8-0.8-5.6-1.2c-0.7-0.1-1.4-4.2-1.6-5c-0.2,0.8-0.9,4.9-1.6,5
		c-1.9,0.4-3.8,0.8-5.6,1.2c1.9,0.4,3.8,0.8,5.6,1.2c0.7,0.1,1.4,4.2,1.6,5c0.2-0.8,0.9-4.9,1.6-5C195,149,196.9,148.6,198.8,148.2"
		/>
	<path id="path423" class="st2" d="M219,148.2c-1.9-0.4-3.8-0.8-5.6-1.2c-0.7-0.1-1.4-4.2-1.6-5c-0.2,0.8-0.9,4.9-1.6,5
		c-1.9,0.4-3.8,0.8-5.6,1.2c1.9,0.4,3.8,0.8,5.6,1.2c0.7,0.1,1.4,4.2,1.6,5c0.2-0.8,0.9-4.9,1.6-5C215.2,149,217.1,148.6,219,148.2"
		/>
	<path id="path425" class="st2" d="M239.1,96c-1.9-0.4-3.8-0.8-5.6-1.2c-0.7-0.1-1.4-4.2-1.6-5c-0.2,0.8-0.9,4.9-1.6,5
		c-1.9,0.4-3.8,0.8-5.6,1.2c1.9,0.4,3.8,0.8,5.6,1.2c0.7,0.1,1.4,4.2,1.6,5c0.2-0.8,0.9-4.9,1.6-5C235.4,96.8,237.3,96.4,239.1,96"
		/>
	<path id="path427" class="st2" d="M239.1,78.6c-1.9-0.4-3.8-0.8-5.6-1.2c-0.7-0.1-1.4-4.2-1.6-5c-0.2,0.8-0.9,4.9-1.6,5
		c-1.9,0.4-3.8,0.8-5.6,1.2c1.9,0.4,3.8,0.8,5.6,1.2c0.7,0.1,1.4,4.2,1.6,5c0.2-0.8,0.9-4.9,1.6-5C235.4,79.4,237.3,79,239.1,78.6"
		/>
	<path id="path429" class="st2" d="M239.1,130.8c-1.9-0.4-3.8-0.8-5.6-1.2c-0.7-0.1-1.4-4.2-1.6-5c-0.2,0.8-0.9,4.9-1.6,5
		c-1.9,0.4-3.8,0.8-5.6,1.2c1.9,0.4,3.8,0.8,5.6,1.2c0.7,0.1,1.4,4.2,1.6,5c0.2-0.8,0.9-4.9,1.6-5
		C235.4,131.6,237.3,131.2,239.1,130.8"/>
	<path id="path431" class="st2" d="M239.1,113.4c-1.9-0.4-3.8-0.8-5.6-1.2c-0.7-0.1-1.4-4.2-1.6-5c-0.2,0.8-0.9,4.9-1.6,5
		c-1.9,0.4-3.8,0.8-5.6,1.2c1.9,0.4,3.8,0.8,5.6,1.2c0.7,0.1,1.4,4.2,1.6,5c0.2-0.8,0.9-4.9,1.6-5
		C235.4,114.2,237.3,113.8,239.1,113.4"/>
	<path id="path433" class="st2" d="M259.3,78.6c-1.9-0.4-3.8-0.8-5.6-1.2c-0.7-0.1-1.4-4.2-1.6-5c-0.2,0.8-0.9,4.9-1.6,5
		c-1.9,0.4-3.8,0.8-5.6,1.2c1.9,0.4,3.8,0.8,5.6,1.2c0.7,0.1,1.4,4.2,1.6,5c0.2-0.8,0.9-4.9,1.6-5C255.6,79.5,257.4,79,259.3,78.6"
		/>
	<path id="path435" class="st2" d="M259.3,96c-1.9-0.4-3.8-0.8-5.6-1.2c-0.7-0.1-1.4-4.2-1.6-5c-0.2,0.8-0.9,4.9-1.6,5
		c-1.9,0.4-3.8,0.8-5.6,1.2c1.9,0.4,3.8,0.8,5.6,1.2c0.7,0.1,1.4,4.2,1.6,5c0.2-0.8,0.9-4.9,1.6-5C255.5,96.8,257.4,96.4,259.3,96"
		/>
	<path id="path437" class="st2" d="M259.3,113.4c-1.9-0.4-3.8-0.8-5.6-1.2c-0.7-0.1-1.4-4.2-1.6-5c-0.2,0.8-0.9,4.9-1.6,5
		c-1.9,0.4-3.8,0.8-5.6,1.2c1.9,0.4,3.8,0.8,5.6,1.2c0.7,0.1,1.4,4.2,1.6,5c0.2-0.8,0.9-4.9,1.6-5
		C255.5,114.2,257.4,113.8,259.3,113.4"/>
	<path id="path439" class="st2" d="M259.3,130.8c-1.9-0.4-3.8-0.8-5.6-1.2c-0.7-0.1-1.4-4.2-1.6-5c-0.2,0.8-0.9,4.9-1.6,5
		c-1.9,0.4-3.8,0.8-5.6,1.2c1.9,0.4,3.8,0.8,5.6,1.2c0.7,0.1,1.4,4.2,1.6,5c0.2-0.8,0.9-4.9,1.6-5
		C255.5,131.6,257.4,131.2,259.3,130.8"/>
	<path id="path441" class="st2" d="M239.2,165.6c-1.9-0.4-3.8-0.8-5.6-1.2c-0.7-0.1-1.4-4.2-1.6-5c-0.2,0.8-0.9,4.9-1.6,5
		c-1.9,0.4-3.8,0.8-5.6,1.2c1.9,0.4,3.8,0.8,5.6,1.2c0.7,0.1,1.4,4.2,1.6,5c0.2-0.8,0.9-4.9,1.6-5
		C235.4,166.4,237.3,166,239.2,165.6"/>
	<path id="path443" class="st2" d="M259.3,165.6c-1.9-0.4-3.8-0.8-5.6-1.2c-0.7-0.1-1.4-4.2-1.6-5c-0.2,0.8-0.9,4.9-1.6,5
		c-1.9,0.4-3.8,0.8-5.6,1.2c1.9,0.4,3.8,0.8,5.6,1.2c0.7,0.1,1.4,4.2,1.6,5c0.2-0.8,0.9-4.9,1.6-5
		C255.5,166.4,257.4,166,259.3,165.6"/>
	<path id="path445" class="st2" d="M239.2,148.2c-1.9-0.4-3.8-0.8-5.6-1.2c-0.7-0.1-1.4-4.2-1.6-5c-0.2,0.8-0.9,4.9-1.6,5
		c-1.9,0.4-3.8,0.8-5.6,1.2c1.9,0.4,3.8,0.8,5.6,1.2c0.7,0.1,1.4,4.2,1.6,5c0.2-0.8,0.9-4.9,1.6-5
		C235.4,149,237.3,148.6,239.2,148.2"/>
	<path id="path447" class="st2" d="M259.3,148.2c-1.9-0.4-3.8-0.8-5.6-1.2c-0.7-0.1-1.4-4.2-1.6-5c-0.2,0.8-0.9,4.9-1.6,5
		c-1.9,0.4-3.8,0.8-5.6,1.2c1.9,0.4,3.8,0.8,5.6,1.2c0.7,0.1,1.4,4.2,1.6,5c0.2-0.8,0.9-4.9,1.6-5
		C255.5,149,257.4,148.6,259.3,148.2"/>
	<path id="path449" class="st2" d="M138.2,43.8c-1.9-0.4-3.8-0.8-5.6-1.2c-0.7-0.1-1.4-4.2-1.6-5c-0.2,0.8-0.9,4.9-1.6,5
		c-1.9,0.4-3.8,0.8-5.6,1.2c1.9,0.4,3.8,0.8,5.6,1.2c0.7,0.1,1.4,4.2,1.6,5c0.2-0.8,0.9-4.9,1.6-5C134.5,44.7,136.4,44.3,138.2,43.8
		"/>
	<path id="path451" class="st2" d="M158.4,43.9c-1.9-0.4-3.8-0.8-5.6-1.2c-0.7-0.1-1.4-4.2-1.6-5c-0.2,0.8-0.9,4.9-1.6,5
		c-1.9,0.4-3.8,0.8-5.6,1.2c1.9,0.4,3.8,0.8,5.6,1.2c0.7,0.1,1.4,4.2,1.6,5c0.2-0.8,0.9-4.9,1.6-5C154.6,44.7,156.5,44.3,158.4,43.9
		"/>
	<path id="path453" class="st2" d="M178.6,43.9c-1.9-0.4-3.8-0.8-5.6-1.2c-0.7-0.1-1.4-4.2-1.6-5c-0.2,0.8-0.9,4.9-1.6,5
		c-1.9,0.4-3.8,0.8-5.6,1.2c1.9,0.4,3.8,0.8,5.6,1.2c0.7,0.1,1.4,4.2,1.6,5c0.2-0.8,0.9-4.9,1.6-5C174.9,44.7,176.7,44.3,178.6,43.9
		"/>
	<path id="path455" class="st2" d="M99.3,43.9c-1.9-0.4-3.8-0.8-5.6-1.2c-0.7-0.1-1.4-4.2-1.6-5c-0.2,0.8-0.9,4.9-1.6,5
		c-1.9,0.4-3.8,0.8-5.6,1.2c1.9,0.4,3.8,0.8,5.6,1.2c0.7,0.1,1.4,4.2,1.6,5c0.2-0.8,0.9-4.9,1.6-5C95.6,44.7,97.5,44.3,99.3,43.9"/>
	<path id="path457" class="st2" d="M79.2,43.9c-1.9-0.4-3.8-0.8-5.6-1.2c-0.7-0.1-1.4-4.2-1.6-5c-0.2,0.8-0.9,4.9-1.6,5
		c-1.9,0.4-3.8,0.8-5.6,1.2c1.9,0.4,3.8,0.8,5.6,1.2c0.7,0.1,1.4,4.2,1.6,5c0.2-0.8,0.9-4.9,1.6-5C75.4,44.7,77.3,44.3,79.2,43.9"/>
	<path id="path459" class="st2" d="M59,43.9c-1.9-0.4-3.8-0.8-5.6-1.2c-0.7-0.1-1.4-4.2-1.6-5c-0.2,0.8-0.9,4.9-1.6,5
		c-1.9,0.4-3.8,0.8-5.6,1.2c1.9,0.4,3.8,0.8,5.6,1.2c0.7,0.1,1.4,4.2,1.6,5c0.2-0.8,0.9-4.9,1.6-5C55.2,44.7,57.1,44.3,59,43.9"/>
	<path id="path461" class="st2" d="M118.1,43.9c-1.9-0.4-3.8-0.8-5.6-1.2c-0.7-0.1-1.4-4.2-1.6-5c-0.2,0.8-0.9,4.9-1.6,5
		c-1.9,0.4-3.8,0.8-5.6,1.2c1.9,0.4,3.8,0.8,5.6,1.2c0.7,0.1,1.4,4.2,1.6,5c0.2-0.8,0.9-4.9,1.6-5C114.3,44.7,116.2,44.3,118.1,43.9
		"/>
	<path id="path463" class="st2" d="M198.8,43.9c-1.9-0.4-3.8-0.8-5.6-1.2c-0.7-0.1-1.4-4.2-1.6-5c-0.2,0.8-0.9,4.9-1.6,5
		c-1.9,0.4-3.8,0.8-5.6,1.2c1.9,0.4,3.8,0.8,5.6,1.2c0.7,0.1,1.4,4.2,1.6,5c0.2-0.8,0.9-4.9,1.6-5C195,44.7,196.9,44.3,198.8,43.9"
		/>
	<path id="path465" class="st2" d="M219,43.9c-1.9-0.4-3.8-0.8-5.6-1.2c-0.7-0.1-1.4-4.2-1.6-5c-0.2,0.8-0.9,4.9-1.6,5
		c-1.9,0.4-3.8,0.8-5.6,1.2c1.9,0.4,3.8,0.8,5.6,1.2c0.7,0.1,1.4,4.2,1.6,5c0.2-0.8,0.9-4.9,1.6-5C215.2,44.7,217.1,44.3,219,43.9"
		/>
	<path id="path467" class="st2" d="M239.1,43.9c-1.9-0.4-3.8-0.8-5.6-1.2c-0.7-0.1-1.4-4.2-1.6-5c-0.2,0.8-0.9,4.9-1.6,5
		c-1.9,0.4-3.8,0.8-5.6,1.2c1.9,0.4,3.8,0.8,5.6,1.2c0.7,0.1,1.4,4.2,1.6,5c0.2-0.8,0.9-4.9,1.6-5C235.4,44.7,237.3,44.3,239.1,43.9
		"/>
	<path id="path469" class="st2" d="M259.3,43.9c-1.9-0.4-3.8-0.8-5.6-1.2c-0.7-0.1-1.4-4.2-1.6-5c-0.2,0.8-0.9,4.9-1.6,5
		c-1.9,0.4-3.8,0.8-5.6,1.2c1.9,0.4,3.8,0.8,5.6,1.2c0.7,0.1,1.4,4.2,1.6,5c0.2-0.8,0.9-4.9,1.6-5C255.5,44.7,257.4,44.3,259.3,43.9
		"/>
	<path id="path471" class="st2" d="M138.2,61.2c-1.9-0.4-3.8-0.8-5.6-1.2c-0.7-0.1-1.4-4.2-1.6-5c-0.2,0.8-0.9,4.9-1.6,5
		c-1.9,0.4-3.8,0.8-5.6,1.2c1.9,0.4,3.8,0.8,5.6,1.2c0.7,0.1,1.4,4.2,1.6,5c0.2-0.8,0.9-4.9,1.6-5C134.5,62,136.4,61.6,138.2,61.2"
		/>
	<path id="path473" class="st2" d="M158.4,61.3c-1.9-0.4-3.8-0.8-5.6-1.2c-0.7-0.1-1.4-4.2-1.6-5c-0.2,0.8-0.9,4.9-1.6,5
		c-1.9,0.4-3.8,0.8-5.6,1.2c1.9,0.4,3.8,0.8,5.6,1.2c0.7,0.1,1.4,4.2,1.6,5c0.2-0.8,0.9-4.9,1.6-5C154.6,62.1,156.5,61.7,158.4,61.3
		"/>
	<path id="path475" class="st2" d="M178.6,61.3c-1.9-0.4-3.8-0.8-5.6-1.2c-0.7-0.1-1.4-4.2-1.6-5c-0.2,0.8-0.9,4.9-1.6,5
		c-1.9,0.4-3.8,0.8-5.6,1.2c1.9,0.4,3.8,0.8,5.6,1.2c0.7,0.1,1.4,4.2,1.6,5c0.2-0.8,0.9-4.9,1.6-5C174.9,62.1,176.7,61.7,178.6,61.3
		"/>
	<path id="path477" class="st2" d="M99.3,61.2c-1.9-0.4-3.8-0.8-5.6-1.2c-0.7-0.1-1.4-4.2-1.6-5c-0.2,0.8-0.9,4.9-1.6,5
		c-1.9,0.4-3.8,0.8-5.6,1.2c1.9,0.4,3.8,0.8,5.6,1.2c0.7,0.1,1.4,4.2,1.6,5c0.2-0.8,0.9-4.9,1.6-5C95.6,62.1,97.5,61.7,99.3,61.2"/>
	<path id="path479" class="st2" d="M79.2,61.2c-1.9-0.4-3.8-0.8-5.6-1.2c-0.7-0.1-1.4-4.2-1.6-5c-0.2,0.8-0.9,4.9-1.6,5
		c-1.9,0.4-3.8,0.8-5.6,1.2c1.9,0.4,3.8,0.8,5.6,1.2c0.7,0.1,1.4,4.2,1.6,5c0.2-0.8,0.9-4.9,1.6-5C75.4,62.1,77.3,61.7,79.2,61.2"/>
	<path id="path481" class="st2" d="M59,61.2c-1.9-0.4-3.8-0.8-5.6-1.2c-0.7-0.1-1.4-4.2-1.6-5c-0.2,0.8-0.9,4.9-1.6,5
		c-1.9,0.4-3.8,0.8-5.6,1.2c1.9,0.4,3.8,0.8,5.6,1.2c0.7,0.1,1.4,4.2,1.6,5c0.2-0.8,0.9-4.9,1.6-5C55.2,62.1,57.1,61.7,59,61.2"/>
	<path id="path483" class="st2" d="M118.1,61.2c-1.9-0.4-3.8-0.8-5.6-1.2c-0.7-0.1-1.4-4.2-1.6-5c-0.2,0.8-0.9,4.9-1.6,5
		c-1.9,0.4-3.8,0.8-5.6,1.2c1.9,0.4,3.8,0.8,5.6,1.2c0.7,0.1,1.4,4.2,1.6,5c0.2-0.8,0.9-4.9,1.6-5C114.3,62.1,116.2,61.7,118.1,61.2
		"/>
	<path id="path485" class="st2" d="M198.8,61.3c-1.9-0.4-3.8-0.8-5.6-1.2c-0.7-0.1-1.4-4.2-1.6-5c-0.2,0.8-0.9,4.9-1.6,5
		c-1.9,0.4-3.8,0.8-5.6,1.2c1.9,0.4,3.8,0.8,5.6,1.2c0.7,0.1,1.4,4.2,1.6,5c0.2-0.8,0.9-4.9,1.6-5C195,62.1,196.9,61.7,198.8,61.3"
		/>
	<path id="path487" class="st2" d="M219,61.2c-1.9-0.4-3.8-0.8-5.6-1.2c-0.7-0.1-1.4-4.2-1.6-5c-0.2,0.8-0.9,4.9-1.6,5
		c-1.9,0.4-3.8,0.8-5.6,1.2c1.9,0.4,3.8,0.8,5.6,1.2c0.7,0.1,1.4,4.2,1.6,5c0.2-0.8,0.9-4.9,1.6-5C215.2,62.1,217.1,61.7,219,61.2"
		/>
	<path id="path489" class="st2" d="M239.1,61.3c-1.9-0.4-3.8-0.8-5.6-1.2c-0.7-0.1-1.4-4.2-1.6-5c-0.2,0.8-0.9,4.9-1.6,5
		c-1.9,0.4-3.8,0.8-5.6,1.2c1.9,0.4,3.8,0.8,5.6,1.2c0.7,0.1,1.4,4.2,1.6,5c0.2-0.8,0.9-4.9,1.6-5C235.4,62.1,237.3,61.7,239.1,61.3
		"/>
	<path id="path491" class="st2" d="M259.3,61.2c-1.9-0.4-3.8-0.8-5.6-1.2c-0.7-0.1-1.4-4.2-1.6-5c-0.2,0.8-0.9,4.9-1.6,5
		c-1.9,0.4-3.8,0.8-5.6,1.2c1.9,0.4,3.8,0.8,5.6,1.2c0.7,0.1,1.4,4.2,1.6,5c0.2-0.8,0.9-4.9,1.6-5C255.5,62.1,257.4,61.7,259.3,61.2
		"/>
	<path id="path493" class="st6" d="M294.6,11.3c0-2.9-8-1.9-9.6-1.9c-7.3,0-14.6,0-22,0c-24.2,0-48.4,0-72.6,0
		c-51.9,0-103.8,0-155.7,0c-6.5,0-12.9,0-19.3,0c-2.2,0-6.9-0.8-6.9,2.4c0,16.6,0,33.1,0,49.7c0,45.2,0,90.4,0,135.5
		c0,3.4,3.7,2.7,6.1,2.7c6.2,0,12.4,0,18.5,0c22.9,0,45.8,0,68.7,0c53.1,0,106.3,0,159.4,0c7.6,0,15.1,0,22.7,0c2.6,0,5.9,0.6,8.4,0
		c3.7,0,2.2-10.5,2.2-12.6c0-9.9,0-19.8,0-29.7c0-47.6,0-95.2,0-142.8C294.6,13.5,294.6,12.4,294.6,11.3"/>
</g>
</svg>
