<svg id="Layer_1" data-name="Layer 1" xmlns="http://www.w3.org/2000/svg" viewBox="0 0 800 1200"><defs><style>.cls-1{fill:none;stroke:#000;stroke-miterlimit:10;stroke-width:13px;}</style></defs><path d="M108.92,43.68,29,123.59V98.19c0-1.14,0-2.27.11-3.4,0-.42.05-.83.08-1.24a54.59,54.59,0,0,1,1.06-7.06L71.81,44.93a54.44,54.44,0,0,1,7-1.06l1.25-.08c1.13-.07,2.26-.11,3.4-.11Z"/><polygon points="188.78 43.68 29 203.47 29 167.6 152.93 43.68 188.78 43.68"/><polygon points="268.65 43.68 29 283.33 29 247.47 232.79 43.68 268.65 43.68"/><polygon points="348.5 43.68 29 363.19 29 327.33 312.64 43.68 348.5 43.68"/><polygon points="428.37 43.68 29 443.06 29 407.2 392.51 43.68 428.37 43.68"/><polygon points="508.23 43.68 29 522.91 29 487.07 472.38 43.68 508.23 43.68"/><polygon points="588.09 43.68 29 602.77 29 566.92 552.24 43.68 588.09 43.68"/><polygon points="667.96 43.68 29 682.64 29 646.78 632.1 43.68 667.96 43.68"/><path d="M741.66,49.85,29,762.51V726.65l683-683h4.52a54.72,54.72,0,0,1,10.14,1c.32,0,.64.12,1,.19A53.5,53.5,0,0,1,741.66,49.85Z"/><path d="M771,98.19v2.17l-742,742V806.51l735-735a54,54,0,0,1,5.28,13.13c.08.3.16.6.22.91A54,54,0,0,1,771,98.19Z"/><polygon points="771 144.37 771 180.22 29 922.22 29 886.38 771 144.37"/><polygon points="771 222.6 771 258.46 29 1000.47 29 964.6 771 222.6"/><polygon points="771 302.47 771 338.31 29 1080.32 29 1044.47 771 302.47"/><path d="M771,382.32v35.85L44.4,1144.77a54.46,54.46,0,0,1-12.25-19.65c-.35-1-.67-2-1-3Z"/><path d="M771,462.18V498L107.72,1161.32H83.51a55.32,55.32,0,0,1-10.61-1Z"/><polygon points="771 542.05 771 577.91 187.6 1161.32 151.73 1161.32 771 542.05"/><polygon points="771 621.91 771 657.77 267.45 1161.32 231.59 1161.32 771 621.91"/><polygon points="771 701.78 771 737.62 347.31 1161.32 311.46 1161.32 771 701.78"/><polygon points="771 781.63 771 817.49 427.18 1161.32 391.32 1161.32 771 781.63"/><polygon points="771 861.5 771 897.35 507.04 1161.32 471.17 1161.32 771 861.5"/><polygon points="771 941.36 771 977.22 586.9 1161.32 551.04 1161.32 771 941.36"/><polygon points="771 1021.22 771 1057.09 666.76 1161.32 630.91 1161.32 771 1021.22"/><path d="M771,1101.08v5.73a54.49,54.49,0,0,1-54.51,54.51h-5.73Z"/><path class="cls-1" d="M771,98.19V1106.81a54.49,54.49,0,0,1-54.51,54.51h-633a55.32,55.32,0,0,1-10.61-1,53.33,53.33,0,0,1-7.7-2.12,54.75,54.75,0,0,1-33.05-33.05c-.35-1-.67-2-1-3A54.25,54.25,0,0,1,29,1106.81V98.19c0-1.14,0-2.27.11-3.4,0-.42.05-.83.08-1.24A54.41,54.41,0,0,1,78.86,43.87l1.25-.08c1.13-.07,2.26-.11,3.4-.11h633a54.72,54.72,0,0,1,10.14,1c.32,0,.64.12,1,.19a53.5,53.5,0,0,1,14.07,5q2,1,3.91,2.24l.7.45a54.83,54.83,0,0,1,14.64,14.05c.16.22.32.46.47.69q1.41,2,2.63,4.21a54,54,0,0,1,5.28,13.13c.08.3.16.6.22.91A54,54,0,0,1,771,98.19Z"/><path d="M54.11,59.9l-3.87,4.9c-1,1.25.24,3.3,1.82,2.35L67.38,58c1.41-.84.49-3.34-1.16-2.74L45,62.87l1.16,2.74a49.27,49.27,0,0,1,12-6.37L57,56.49l-13,8.91,1.82,2.36c5.11-5.69,13.13-7.35,18.83-12.31L62.07,54c-1.55,4.21-5.38,7-8.87,9.57L39.79,73.34,42,75a14.24,14.24,0,0,1,3.59-6c1.76-2,3.59-3.86,5.42-5.75Q56.64,57.54,62.58,52l-2.12-2.12A178.8,178.8,0,0,1,43.35,67.19c-1.27,1.12.4,3.29,1.82,2.36A57.06,57.06,0,0,0,55.5,60.89L53,59.43a38.92,38.92,0,0,1-6.47,10.43L49,71.32a19,19,0,0,1,4-7.61l-2.12-2.12L49,64a1.5,1.5,0,0,0,2.13,2.12A83.93,83.93,0,0,1,62.6,58.4l-1.82-2.35A67.71,67.71,0,0,1,50.7,63.83l1.82,2.36A58.88,58.88,0,0,1,70.33,54.48l-2-2.06a22,22,0,0,1-6.76,7.2c-1.6,1.07-.1,3.67,1.51,2.59a25.4,25.4,0,0,0,7.84-8.27c.83-1.42-.77-2.6-2.05-2.06A61.27,61.27,0,0,0,50.4,64.07a1.51,1.51,0,0,0,1.81,2.36A72.56,72.56,0,0,0,62.9,58.17c1.26-1.18-.35-3.18-1.82-2.36A89.28,89.28,0,0,0,49,64l2.13,2.12,1.92-2.37c1.2-1.48-.83-3.6-2.12-2.12a22.17,22.17,0,0,0-4.8,8.93c-.38,1.38,1.49,2.64,2.5,1.46a43.28,43.28,0,0,0,7.24-11.75c.59-1.42-1.54-2.49-2.51-1.46A53.57,53.57,0,0,1,43.66,67l1.81,2.35A178.8,178.8,0,0,0,62.58,52a1.5,1.5,0,0,0-2.12-2.12q-6.28,5.82-12.24,12c-3.44,3.56-7.87,7.34-9.12,12.34-.29,1.16,1.09,2.51,2.2,1.69,4.79-3.49,9.6-7,14.36-10.47,3.87-2.87,7.6-6,9.3-10.68.56-1.52-1.48-2.35-2.51-1.45-5.71,5-13.67,6.56-18.83,12.31C42.54,66.84,44,69,45.43,68l13-8.91c1.31-.89.55-3.36-1.15-2.74A52.3,52.3,0,0,0,44.63,63c-1.27.91-.57,3.36,1.16,2.74L67,58.1l-1.15-2.74-15.32,9.2,1.81,2.36L56.23,62c1.19-1.5-.92-3.64-2.12-2.12Z"/></svg>