<svg id="Layer_1" data-name="Layer 1" xmlns="http://www.w3.org/2000/svg" viewBox="0 0 800 800"><circle cx="257.14" cy="436.14" r="111.33"/><path d="M257.14,360.81a75.33,75.33,0,1,1-75.33,75.33,75.41,75.41,0,0,1,75.33-75.33m0-72A147.33,147.33,0,1,0,404.46,436.14,147.33,147.33,0,0,0,257.14,288.81Z"/><circle cx="400" cy="223.33" r="111.33"/><path d="M400,148a75.33,75.33,0,1,1-75.33,75.33A75.41,75.41,0,0,1,400,148m0-72A147.33,147.33,0,1,0,547.33,223.33,147.33,147.33,0,0,0,400,76Z"/><circle cx="542.86" cy="436.14" r="111.33" transform="translate(-31.87 829.32) rotate(-73.15)"/><path d="M542.86,360.81a75.33,75.33,0,1,1-75.32,75.33,75.41,75.41,0,0,1,75.32-75.33m0-72A147.33,147.33,0,1,0,690.19,436.14,147.33,147.33,0,0,0,542.86,288.81Z"/><path d="M426.31,329.79H373.47a27.15,27.15,0,0,0-27.16,27.15v26.51a27.16,27.16,0,0,0,27.16,27.16h52.84a27.16,27.16,0,0,0,27.15-27.16V356.94a27.15,27.15,0,0,0-27.15-27.15Z"/><path d="M509.62,639.63H290.38a44.84,44.84,0,0,0-44.84,44.84v7.87a44.84,44.84,0,0,0,44.84,44.84H509.62a44.84,44.84,0,0,0,44.84-44.84v-7.87a44.84,44.84,0,0,0-44.84-44.84Z"/></svg>