<svg id="Layer_1" data-name="Layer 1" xmlns="http://www.w3.org/2000/svg" viewBox="0 0 800 800"><circle cx="257.14" cy="407.14" r="111.33"/><path d="M257.14,331.81a75.33,75.33,0,1,1-75.33,75.33,75.41,75.41,0,0,1,75.33-75.33m0-72A147.33,147.33,0,1,0,404.46,407.14,147.33,147.33,0,0,0,257.14,259.81Z"/><circle cx="400" cy="201.33" r="111.33"/><path d="M400,126a75.33,75.33,0,1,1-75.33,75.33A75.41,75.41,0,0,1,400,126m0-72A147.33,147.33,0,1,0,547.33,201.33,147.33,147.33,0,0,0,400,54Z"/><circle cx="542.86" cy="407.14" r="111.33" transform="translate(-4.12 808.73) rotate(-73.15)"/><path d="M542.86,331.81a75.33,75.33,0,1,1-75.32,75.33,75.41,75.41,0,0,1,75.32-75.33m0-72A147.33,147.33,0,1,0,690.19,407.14,147.33,147.33,0,0,0,542.86,259.81Z"/><path d="M426.31,300.79H373.47a27.15,27.15,0,0,0-27.16,27.15v26.51a27.16,27.16,0,0,0,27.16,27.16h52.84a27.16,27.16,0,0,0,27.15-27.16V327.94a27.15,27.15,0,0,0-27.15-27.15Z"/><circle cx="400" cy="650.5" r="63.1" transform="translate(-306.17 941.14) rotate(-80.78)"/><path d="M400,615.4a35.1,35.1,0,1,1-35.1,35.1A35.15,35.15,0,0,1,400,615.4m0-56a91.1,91.1,0,1,0,91.1,91.1A91.1,91.1,0,0,0,400,559.4Z"/></svg>