<svg id="Layer_1" data-name="Layer 1" xmlns="http://www.w3.org/2000/svg" viewBox="0 0 800 800"><defs><style>.cls-1{fill:#ea2c48;}</style></defs><path class="cls-1" d="M400,698.28a15.23,15.23,0,0,1-10.8-4.48l-283-283a15.26,15.26,0,0,1,0-21.6l283-283a15.26,15.26,0,0,1,21.6,0l283,283a15.28,15.28,0,0,1,0,21.6l-283,283A15.23,15.23,0,0,1,400,698.28Z"/><path class="cls-1" d="M400,154.79,645.21,400,400,645.21,154.79,400,400,154.79m0-95.07A57.11,57.11,0,0,0,359.5,76.5l-283,283a57.27,57.27,0,0,0,0,81l283,283a57.27,57.27,0,0,0,81,0l283-283a57.27,57.27,0,0,0,0-81l-283-283A57.11,57.11,0,0,0,400,59.72Z"/></svg>