<svg id="Layer_1" data-name="Layer 1" xmlns="http://www.w3.org/2000/svg" viewBox="0 0 800 800"><defs><style>.cls-1{fill:#ea2c48;}</style></defs><rect class="cls-1" x="184.61" y="184.61" width="430.77" height="430.77" transform="translate(-165.69 400) rotate(-45)"/><path class="cls-1" d="M400,154.79,645.21,400,400,645.21,154.79,400,400,154.79m0-102.68A38.78,38.78,0,0,0,372.5,63.5l-309,309a38.89,38.89,0,0,0,0,55l309,309a38.89,38.89,0,0,0,55,0l309-309a38.89,38.89,0,0,0,0-55l-309-309A38.78,38.78,0,0,0,400,52.11Z"/></svg>