<svg id="Layer_1" data-name="Layer 1" xmlns="http://www.w3.org/2000/svg" viewBox="0 0 800 800"><defs><style>.cls-1{fill:#ea2c48;}</style></defs><path class="cls-1" d="M157.56,445.9c-34.66-34.66-56.91-71.37-66.14-109.11-7.73-31.63-5.71-63.09,5.85-91A133.48,133.48,0,0,1,146.19,186a137.33,137.33,0,0,1,77.05-23.12c49.63,0,100.33,24.47,146.63,70.76l29.34,29.35,29.35-29.35c47.32-47.32,99-72.34,149.34-72.34a136.64,136.64,0,0,1,76.51,22.82,131.64,131.64,0,0,1,48.38,59.13c11.61,28,13.54,59.76,5.6,91.78-9.49,38.29-32.21,75.61-67.52,110.92L399.21,687.56Z"/><path class="cls-1" d="M577.92,202.75c39,0,72.13,21.58,86.52,56.32,8.19,19.77,9.46,42.57,3.67,65.92-7.54,30.43-27.11,62.09-56.59,91.57L399.21,628.87,186.9,416.56c-28.79-28.8-47.87-59.79-55.16-89.62-5.62-23-4.28-45.57,3.87-65.25a92.09,92.09,0,0,1,33.75-41.31,96,96,0,0,1,53.88-16c17.07,0,34.8,4.09,52.69,12.16,21.92,9.87,43.65,25.5,64.59,46.45l58.69,58.69,58.69-58.69c21.5-21.5,43.78-37.55,66.23-47.7,18.32-8.28,36.41-12.48,53.78-12.49h0m0-83c-56,0-119,24.8-178.69,84.5-58.58-58.59-120.54-82.92-176-82.92-154.93,0-258.79,190.16-95,353.92L385.42,732.46a19.51,19.51,0,0,0,27.58,0L670.21,475.25c165.35-165.35,62.93-355.51-92.31-355.5Z"/></svg>