<svg id="Layer_1" data-name="Layer 1" xmlns="http://www.w3.org/2000/svg" viewBox="0 0 800 1200"><defs><style>.cls-1,.cls-6{fill:#f7e68c;}.cls-2{fill:#7d5532;}.cls-3{fill:#bb3a27;}.cls-4{fill:#fabb85;}.cls-5{fill:#e9aa75;}.cls-6{stroke:#f7e68c;stroke-miterlimit:10;stroke-width:38px;}</style></defs><path class="cls-1" d="M596.06,249.53c22.94,0,57.36-119,57.36-119S679.23,253.84,707.91,251,596.06,249.53,596.06,249.53Z"/><path class="cls-1" d="M389.56,250.25c22.95,0,57.36-119,57.36-119s25.82,123.32,54.5,120.46S389.56,250.25,389.56,250.25Z"/><path class="cls-2" d="M767.43,1050.43H345c-75.77,0-132.77-86.49-118.38-179.63l57-369.1a191.79,191.79,0,0,0,2.13-24.09c4.76-176.47,120.52-317.7,262.63-317.7h0c138.8,0,252,137.35,257.55,309.42a178.3,178.3,0,0,0,3.66,30.05l74.6,362.42C903.85,957.34,846.23,1050.43,767.43,1050.43Z"/><path class="cls-3" d="M816.18,1200.57H275.56V948.76c0-91.85,75.15-167,167-167h206.6c91.86,0,167,75.16,167,167Z"/><path class="cls-1" d="M654.19,781.35v101.1A73.79,73.79,0,0,1,580.62,956H511.11a73.79,73.79,0,0,1-73.57-73.58V781.35q6.68-.51,13.47-.51H640.73Q647.53,780.84,654.19,781.35Z"/><rect class="cls-4" x="472.3" y="570.66" width="147.15" height="349.27" rx="51.31"/><path class="cls-5" d="M619,729.42V819c-53-1.3-105.44-25-146.26-66V729.42a164.49,164.49,0,0,0,146.26,0Z"/><rect class="cls-4" x="347.31" y="207.23" width="397.12" height="537.17" rx="198.56"/><ellipse class="cls-2" cx="564.69" cy="349.34" rx="167.11" ry="218.03" transform="translate(81.45 804.75) rotate(-75.04)"/><path class="cls-1" d="M708,285.17C654.06,296.1,579.85,249.6,558,163c-21.85,86.6-96.06,133.1-149.95,122.17-42.74-8.67-65.11-51.91-70.05-62.07l1,131.66c0,5.65,5.83,10.21,13,10.21H764c7.12,0,12.91-4.56,13-10.21l1-131.66C773.06,233.26,750.69,276.5,708,285.17Z"/><line class="cls-6" x1="541.57" y1="951.48" x2="541.57" y2="1201"/></svg>