<svg id="Layer_1" data-name="Layer 1" xmlns="http://www.w3.org/2000/svg" viewBox="0 0 800 800"><path d="M558.09,538.21c-44.18,0-89.29-22.11-130.47-63.94L398.51,444.7l-29.57,29.11c-42.07,41.42-87.69,63.32-131.92,63.32A120,120,0,0,1,169.64,517a115.13,115.13,0,0,1-42.34-52.06c-10.11-24.69-11.67-52.64-4.51-80.83,8.65-34,29.15-67.09,60.94-98.39L401.42,71.38,615.74,289.07c30.53,31,50,63.67,58,97.1,6.62,27.79,4.72,55.37-5.48,79.74a117,117,0,0,1-42.88,52.16,120.35,120.35,0,0,1-67.28,20.14Z"/><path d="M401,130.06,586.17,318.18c24.79,25.18,41.11,52,47.21,77.61C638,415,636.77,433.69,630,449.9a75.61,75.61,0,0,1-27.71,33.71,78.89,78.89,0,0,1-44.16,13.1c-14.41,0-29.42-3.52-44.64-10.46-19.05-8.68-38-22.51-56.28-41.09L399,386l-59.15,58.23c-18.79,18.5-38.13,32.27-57.51,40.93-15.51,6.94-30.75,10.46-45.29,10.46-32.26,0-59.58-17.8-71.32-46.44-6.71-16.39-7.64-35.37-2.69-54.87,6.66-26.17,23.89-53.51,49.83-79.05L401,130.06M401.68,20a17.59,17.59,0,0,0-12.38,5.07L154.61,256.12C3.27,405.13,95.72,578.63,237,578.63c50.41,0,107-22.09,161-75.24,53.1,53.93,109.54,76.32,160.07,76.32,139.52,0,233.82-170.83,87.19-319.76l-231-234.68A17.62,17.62,0,0,0,401.68,20Z"/><circle cx="399.23" cy="676.02" r="63.1"/><path d="M399.23,640.92a35.1,35.1,0,1,1-35.1,35.1,35.14,35.14,0,0,1,35.1-35.1m0-56a91.1,91.1,0,1,0,91.1,91.1,91.1,91.1,0,0,0-91.1-91.1Z"/></svg>