<svg id="Layer_1" data-name="Layer 1" xmlns="http://www.w3.org/2000/svg" viewBox="0 0 800 800"><path d="M583,598.88c-50,0-100.87-24.87-147.19-71.91L406.64,497.4l-29.57,29.11c-47.3,46.56-98.73,71.18-148.74,71.18-28,0-54.53-8-76.85-23a131.57,131.57,0,0,1-48.36-59.45c-11.52-28.14-13.31-59.95-5.16-92,9.74-38.32,32.77-75.56,68.46-110.7L410,72.79,649.72,316.32c34.28,34.82,56.21,71.59,65.2,109.29,7.52,31.6,5.35,63-6.28,90.76a133.49,133.49,0,0,1-48.94,59.54,137.32,137.32,0,0,1-76.73,23Z"/><path d="M409.5,131.48l210.64,214c28.5,28.93,47.31,60,54.41,89.8,5.47,23,4,45.51-4.19,65.12a92.23,92.23,0,0,1-33.77,41.09A95.84,95.84,0,0,1,583,557.38c-17.16,0-35-4.15-52.9-12.33-22-10-43.8-25.91-64.75-47.2L407.1,438.71,348,496.94c-21.49,21.16-43.71,36.95-66.06,46.94-18.26,8.17-36.28,12.31-53.56,12.31-19.67,0-38.22-5.5-53.66-15.91a90.1,90.1,0,0,1-33.14-40.77c-8.13-19.84-9.29-42.67-3.35-66,7.74-30.44,27.57-62,57.36-91.36l214-210.64m.7-109.3a19.46,19.46,0,0,0-13.69,5.6L137.31,283c-167.16,164.57-65,356.21,91,356.21,55.67,0,118.22-24.4,177.86-83.11,58.65,59.58,121,84.3,176.79,84.3,154.1,0,258.26-188.68,96.31-353.17L424.09,28a19.4,19.4,0,0,0-13.89-5.82Z"/><path d="M503.16,681.66H308.84a44.84,44.84,0,1,0,0,89.68H503.16a44.84,44.84,0,0,0,0-89.68Z"/></svg>